<mxfile host="Electron" modified="2024-07-03T07:44:38.298Z" agent="Mozilla/5.0 (X11; Linux x86_64) AppleWebKit/537.36 (KHTML, like Gecko) draw.io/24.6.4 Chrome/124.0.6367.207 Electron/30.0.6 Safari/537.36" etag="JkgLccQzG3dR9q6s79h0" version="24.6.4" type="device">
  <diagram name="Page-1" id="f1b7ffb7-ca1e-a977-7cf5-a751b3c06c05">
    <mxGraphModel dx="1478" dy="849" grid="1" gridSize="10" guides="1" tooltips="1" connect="1" arrows="1" fold="1" page="1" pageScale="1" pageWidth="900" pageHeight="1600" background="#1A1A1A" math="0" shadow="0">
      <root>
        <mxCell id="0" />
        <mxCell id="1" parent="0" />
        <mxCell id="WAwGREqBWpnCd0pNxmOx-66" value="" style="rounded=0;whiteSpace=wrap;html=1;labelBackgroundColor=#050000;fontColor=none;noLabel=1;fillColor=#000000;fontFamily=Inter Light;" vertex="1" parent="1">
          <mxGeometry width="900" height="110" as="geometry" />
        </mxCell>
        <mxCell id="14" value="" style="verticalLabelPosition=bottom;verticalAlign=top;strokeWidth=1;shape=mxgraph.mockup.graphics.iconGrid;strokeColor=#CCCCCC;gridSize=1,1;fontFamily=Inter Light;" parent="1" vertex="1">
          <mxGeometry x="660" y="140" width="220" height="380" as="geometry" />
        </mxCell>
        <mxCell id="2" value="RED" style="text;spacingTop=0;fontSize=36;fontStyle=0;fontColor=#C9211E;fontFamily=Space Mono;verticalAlign=bottom;spacing=0;" parent="1" vertex="1">
          <mxGeometry x="70" y="25" width="230" height="30" as="geometry" />
        </mxCell>
        <mxCell id="3" value="" style="line;strokeWidth=1;fontColor=#FFFFFF;labelBackgroundColor=none;fillColor=none;strokeColor=#FFFFFF;fontFamily=Inter Light;" parent="1" vertex="1">
          <mxGeometry x="20" y="60" width="860" height="10" as="geometry" />
        </mxCell>
        <mxCell id="4" value="" style="line;strokeWidth=1;fontColor=#FFFFFF;labelBackgroundColor=none;fillColor=none;strokeColor=#FFFFFF;fontFamily=Inter Light;" parent="1" vertex="1">
          <mxGeometry x="20" y="90" width="860" height="10" as="geometry" />
        </mxCell>
        <mxCell id="5" value="Home" style="text;spacingTop=-5;align=center;verticalAlign=bottom;fontColor=#FFFFFF;labelBackgroundColor=none;fillColor=none;strokeColor=#FFFFFF;fontFamily=Inter Light;rounded=0;" parent="1" vertex="1">
          <mxGeometry x="20" y="70" width="60" height="20" as="geometry" />
        </mxCell>
        <mxCell id="6" value="About" style="text;spacingTop=-5;verticalAlign=bottom;align=center;fontColor=#FFFFFF;labelBackgroundColor=none;fillColor=none;strokeColor=#FFFFFF;fontFamily=Inter Light;" parent="1" vertex="1">
          <mxGeometry x="80" y="70" width="60" height="20" as="geometry" />
        </mxCell>
        <mxCell id="10" value="Latest Essays" style="text;spacingTop=-5;autosize=1;fontColor=#FFFFFF;fontStyle=1;fontFamily=Inter;" parent="1" vertex="1">
          <mxGeometry x="660" y="120" width="100" height="20" as="geometry" />
        </mxCell>
        <mxCell id="12" value="Lorem ipsum dolor sit amet, consectetur adipisicing elit, sed do eiusmod tempor incididunt ut labore et dolore magna aliqua. Ut enim ad minim veniam, quis nostrud exercitation ullamco laboris nisi ut aliquip ex ea commodo consequat. Duis aute irure dolor in ..." style="text;spacingTop=-5;align=left;whiteSpace=wrap;fontFamily=Inter Light;" parent="1" vertex="1">
          <mxGeometry x="670" y="170" width="200" height="120" as="geometry" />
        </mxCell>
        <mxCell id="15" value="Read this essay" style="text;spacingTop=-5;fontStyle=4;autosize=1;align=right;fontFamily=Inter Light;" parent="1" vertex="1">
          <mxGeometry x="760" y="290" width="110" height="20" as="geometry" />
        </mxCell>
        <mxCell id="16" value="This morning" style="text;spacingTop=-5;fontStyle=0;align=right;autosize=1;fontFamily=Inter Light;" parent="1" vertex="1">
          <mxGeometry x="770" y="310" width="100" height="20" as="geometry" />
        </mxCell>
        <mxCell id="17" value="Lorem ipsum dolor sit amet, consectetur adipisicing elit, sed do eiusmod tempor incididunt ut labore et dolore magna aliqua. Ut enim ad minim veniam, quis nostrud exercitation ullamco laboris nisi ut aliquip ex ea commodo ..." style="text;spacingTop=-5;whiteSpace=wrap;align=left;fontFamily=Inter Light;" parent="1" vertex="1">
          <mxGeometry x="670" y="360" width="200" height="110" as="geometry" />
        </mxCell>
        <mxCell id="18" value="Read this essay" style="text;spacingTop=-5;fontStyle=4;align=right;autosize=1;fontFamily=Inter Light;" parent="1" vertex="1">
          <mxGeometry x="760" y="470" width="110" height="20" as="geometry" />
        </mxCell>
        <mxCell id="19" value="1 week ago" style="text;spacingTop=-5;fontStyle=0;align=right;autosize=1;fontFamily=Inter Light;" parent="1" vertex="1">
          <mxGeometry x="780" y="490" width="90" height="20" as="geometry" />
        </mxCell>
        <mxCell id="22" value="Machine Learning Projects" style="text;spacingTop=-5;align=center;verticalAlign=bottom;fontColor=#FFFFFF;labelBackgroundColor=none;fillColor=none;strokeColor=#FFFFFF;fontFamily=Inter Light;" parent="1" vertex="1">
          <mxGeometry x="140" y="70" width="171" height="20" as="geometry" />
        </mxCell>
        <mxCell id="23" value="Games" style="text;spacingTop=-5;align=center;verticalAlign=bottom;fontColor=#FFFFFF;labelBackgroundColor=none;fillColor=none;strokeColor=#FFFFFF;fontFamily=Inter Light;" parent="1" vertex="1">
          <mxGeometry x="311" y="70" width="60" height="20" as="geometry" />
        </mxCell>
        <mxCell id="24" value="Electrical Projects" style="text;spacingTop=-5;align=center;verticalAlign=bottom;fontColor=#FFFFFF;labelBackgroundColor=none;fillColor=none;strokeColor=#FFFFFF;fontFamily=Inter Light;" parent="1" vertex="1">
          <mxGeometry x="371" y="70" width="130" height="20" as="geometry" />
        </mxCell>
        <mxCell id="50" value="" style="verticalLabelPosition=bottom;verticalAlign=top;strokeWidth=1;shape=mxgraph.mockup.graphics.iconGrid;strokeColor=#CCCCCC;gridSize=1,1;fontFamily=Inter Light;" parent="1" vertex="1">
          <mxGeometry x="660" y="800" width="220" height="150" as="geometry" />
        </mxCell>
        <mxCell id="51" value="Me on Twitter" style="text;spacingTop=-5;fontStyle=1;fontColor=#FFFFFF;autosize=1;fontFamily=Inter;" parent="1" vertex="1">
          <mxGeometry x="670" y="780" width="100" height="20" as="geometry" />
        </mxCell>
        <mxCell id="52" value="I don&#39;t have a Twitter" style="text;spacingTop=-5;whiteSpace=wrap;align=left;fontFamily=Inter Light;" parent="1" vertex="1">
          <mxGeometry x="670" y="810" width="190" height="40" as="geometry" />
        </mxCell>
        <mxCell id="58" value="" style="verticalLabelPosition=bottom;verticalAlign=top;strokeWidth=1;shape=mxgraph.mockup.graphics.iconGrid;strokeColor=#CCCCCC;gridSize=1,1;fontFamily=Inter Light;" parent="1" vertex="1">
          <mxGeometry x="160" y="740" width="220" height="220" as="geometry" />
        </mxCell>
        <mxCell id="WAwGREqBWpnCd0pNxmOx-62" value="Essays" style="text;spacingTop=-5;align=center;verticalAlign=bottom;fontColor=#FFFFFF;labelBackgroundColor=none;fillColor=none;strokeColor=#FFFFFF;fontFamily=Inter Light;" vertex="1" parent="1">
          <mxGeometry x="501" y="70" width="70" height="20" as="geometry" />
        </mxCell>
        <mxCell id="WAwGREqBWpnCd0pNxmOx-63" value="Other" style="text;spacingTop=-5;align=center;verticalAlign=bottom;fontColor=#FFFFFF;labelBackgroundColor=none;fillColor=none;strokeColor=#FFFFFF;fontFamily=Inter Light;" vertex="1" parent="1">
          <mxGeometry x="571" y="70" width="70" height="20" as="geometry" />
        </mxCell>
        <mxCell id="59" value="Tag Cloud" style="text;spacingTop=-5;align=center;verticalAlign=middle;fontSize=36;fontColor=#CCCCCC;fontFamily=Inter Light;" parent="1" vertex="1">
          <mxGeometry x="160" y="825" width="220" height="50" as="geometry" />
        </mxCell>
        <mxCell id="WAwGREqBWpnCd0pNxmOx-67" value="Different Levels of Cognition" style="text;spacingTop=-5;fontStyle=1;fontFamily=Inter Light;" vertex="1" parent="1">
          <mxGeometry x="670" y="150" width="180" height="20" as="geometry" />
        </mxCell>
        <mxCell id="WAwGREqBWpnCd0pNxmOx-68" value="Auditory Readibility forÂ &#xa;Accessibility" style="text;spacingTop=-5;fontStyle=1;resizable=1;fontFamily=Inter Light;" vertex="1" parent="1">
          <mxGeometry x="670" y="330" width="200" height="30" as="geometry" />
        </mxCell>
        <mxCell id="WAwGREqBWpnCd0pNxmOx-82" value="What&#39;s New" style="text;html=1;align=center;verticalAlign=top;whiteSpace=wrap;rounded=0;autosize=1;resizeWidth=1;fontColor=#FFFFFF;fontFamily=Inter;fontStyle=1;fontSize=18;" vertex="1" parent="1">
          <mxGeometry x="20" y="120" width="130" height="40" as="geometry" />
        </mxCell>
        <mxCell id="WAwGREqBWpnCd0pNxmOx-83" value="&lt;div style=&quot;color: #cccccc;background-color: #1f1f1f;font-family: &#39;Droid Sans Mono&#39;, &#39;monospace&#39;, monospace;font-weight: normal;font-size: 14px;line-height: 19px;white-space: pre;&quot;&gt;&lt;div&gt;&lt;span style=&quot;color: #cccccc;&quot;&gt;Icons created by Freepik - Flaticon&lt;/span&gt;&lt;/div&gt;&lt;/div&gt;" style="text;whiteSpace=wrap;html=1;" vertex="1" parent="1">
          <mxGeometry x="340" y="1390" width="330" height="40" as="geometry" />
        </mxCell>
        <mxCell id="WAwGREqBWpnCd0pNxmOx-85" value="" style="group" vertex="1" connectable="0" parent="1">
          <mxGeometry x="20" y="15" width="40" height="40" as="geometry" />
        </mxCell>
        <mxCell id="20" value="" style="verticalLabelPosition=bottom;verticalAlign=top;strokeWidth=1;shape=mxgraph.mockup.graphics.iconGrid;strokeColor=#CCCCCC;gridSize=1,1;fontFamily=Inter Light;" parent="WAwGREqBWpnCd0pNxmOx-85" vertex="1">
          <mxGeometry width="40" height="40" as="geometry" />
        </mxCell>
        <mxCell id="21" value="Blog &#xa;Logo" style="text;spacingTop=-5;align=center;fontColor=#CCCCCC;fontFamily=Inter Light;verticalAlign=middle;" parent="WAwGREqBWpnCd0pNxmOx-85" vertex="1">
          <mxGeometry width="40" height="40" as="geometry" />
        </mxCell>
        <mxCell id="WAwGREqBWpnCd0pNxmOx-95" value="" style="group" vertex="1" connectable="0" parent="1">
          <mxGeometry x="21" y="160" width="620" height="480" as="geometry" />
        </mxCell>
        <mxCell id="WAwGREqBWpnCd0pNxmOx-70" value="" style="group;fontFamily=Inter Light;" vertex="1" connectable="0" parent="WAwGREqBWpnCd0pNxmOx-95">
          <mxGeometry width="620" height="480" as="geometry" />
        </mxCell>
        <mxCell id="13" value="" style="verticalLabelPosition=bottom;verticalAlign=top;strokeWidth=1;shape=mxgraph.mockup.graphics.iconGrid;strokeColor=#CCCCCC;gridSize=1,1;fillColor=default;rotatable=0;resizable=1;fontFamily=Inter Light;" parent="WAwGREqBWpnCd0pNxmOx-70" vertex="1">
          <mxGeometry width="620" height="480" as="geometry" />
        </mxCell>
        <mxCell id="37" value="" style="verticalLabelPosition=bottom;verticalAlign=top;strokeWidth=1;shape=mxgraph.mockup.misc.rating;strokeColor=#999999;fillColor=#ffff00;emptyFillColor=#ffffff;grade=4;ratingScale=5;ratingStyle=star;fontFamily=Inter Light;" parent="WAwGREqBWpnCd0pNxmOx-70" vertex="1">
          <mxGeometry x="532.5" y="465.0000000000002" width="77.5" height="10" as="geometry" />
        </mxCell>
        <mxCell id="8" value="Different Levels of Cognition" style="text;spacingTop=-5;fontStyle=1;fontFamily=Inter Light;" parent="WAwGREqBWpnCd0pNxmOx-70" vertex="1">
          <mxGeometry x="10" width="180" height="20" as="geometry" />
        </mxCell>
        <mxCell id="9" value="Lorem ipsum dolor sit amet, consectetur adipisicing elit, sed do eiusmod tempor incididunt ut labore et dolore magna aliqua. Ut enim ad minim veniam, quis nostrud exercitation ullamco laboris nisi ut aliquip ex ea commodo consequat. Duis aute irure dolor in reprehenderit in voluptate velit esse cillum dolore eu fugiat nulla pariatur. Excepteur sint occaecat cupidatat non proident, sunt in culpa qui officia deserunt mollit anim id est laborum.&#xa;Sed ut perspiciatis unde omnis iste natus error sit voluptatem accusantium doloremque laudantium, totam rem aperiam, eaque ipsa quae ab illo inventore veritatis et quasi architecto beatae vitae dicta sunt explicabo. Nemo enim ipsam voluptatem quia voluptas sit aspernatur aut odit aut fugit, sed quia consequuntur magni dolores eos qui ratione voluptatem sequi nesciunt. Neque porro quisquam est, qui dolorem ipsum quia dolor sit amet, consectetur, adipisci velit, sed quia non numquam eius modi tempora incidunt ut labore et dolore magnam aliquam quaerat voluptatem. Ut enim ad minima veniam, quis nostrum exercitationem ullam corporis suscipit laboriosam, nisi ut aliquid ex ea commodi consequatur? Quis autem vel eum iure reprehenderit qui in ea voluptate velit esse quam nihil molestiae consequatur, vel illum qui dolorem eum fugiat quo voluptas nulla pariatur?" style="text;spacingTop=-5;whiteSpace=wrap;align=left;fontFamily=Inter Light;autosize=1;fixedWidth=1;" parent="WAwGREqBWpnCd0pNxmOx-70" vertex="1">
          <mxGeometry x="10" y="20" width="600" height="210" as="geometry" />
        </mxCell>
        <mxCell id="38" value="Rate this article" style="text;spacingTop=-5;autosize=1;fontFamily=Inter Light;" parent="WAwGREqBWpnCd0pNxmOx-70" vertex="1">
          <mxGeometry x="430" y="460" width="100" height="20" as="geometry" />
        </mxCell>
        <mxCell id="47" value="Tags: essay, brain-machine interfaces" style="text;spacingTop=-5;fontFamily=Inter Light;" parent="WAwGREqBWpnCd0pNxmOx-70" vertex="1">
          <mxGeometry x="10" y="460" width="210" height="20" as="geometry" />
        </mxCell>
        <mxCell id="WAwGREqBWpnCd0pNxmOx-87" value="" style="group" vertex="1" connectable="0" parent="WAwGREqBWpnCd0pNxmOx-70">
          <mxGeometry x="110" y="230" width="400" height="220" as="geometry" />
        </mxCell>
        <mxCell id="25" value="" style="verticalLabelPosition=bottom;verticalAlign=top;strokeWidth=1;shape=mxgraph.mockup.graphics.iconGrid;strokeColor=#CCCCCC;gridSize=1,1;fontFamily=Inter Light;" parent="WAwGREqBWpnCd0pNxmOx-87" vertex="1">
          <mxGeometry width="400" height="220.00000000000003" as="geometry" />
        </mxCell>
        <mxCell id="26" value="Article&#xa;Picture" style="text;spacingTop=-5;align=center;verticalAlign=middle;fontSize=36;fontColor=#CCCCCC;fontFamily=Inter Light;" parent="WAwGREqBWpnCd0pNxmOx-87" vertex="1">
          <mxGeometry width="400" height="220.00000000000003" as="geometry" />
        </mxCell>
        <mxCell id="WAwGREqBWpnCd0pNxmOx-108" value="&#xa;Â PETZEN" style="text;spacingTop=0;fontSize=36;fontStyle=0;fontColor=#FFFFFF;fontFamily=Space Mono;verticalAlign=bottom;spacing=0;" vertex="1" parent="1">
          <mxGeometry x="130" y="25" width="230" height="30" as="geometry" />
        </mxCell>
        <mxCell id="WAwGREqBWpnCd0pNxmOx-119" value="" style="shape=image;aspect=fixed;image=data:image/png,iVBORw0KGgoAAAANSUhEUgAAAgAAAAIACAYAAAD0eNT6AAAABHNCSVQICAgIfAhkiAAAAAlwSFlzAAAOxAAADsQBlSsOGwAAABl0RVh0U29mdHdhcmUAd3d3Lmlua3NjYXBlLm9yZ5vuPBoAACAASURBVHic7N13vF1Vmf/x75OEEFrovVfpgohU6aJ0REDUERUddARFHWfU31jQGR3QsaA4tLFQLFSRJkiVJr0TQHpJIJBCQgLpn98f6wQCnJvce8/aZ519zvf9ep3XjQjPXs/aO/s+Z+9VQtYvwHskfVLSbpJWl7ToPP/3LEmvNPnPpkiaKWmGpKmSkPTyPP/fdEmTGn9+tfFzUuPPrzb+3YlzPxExMWdOZmbWu6J0AzodMFLSqZIOVWf018R5PuMljZP0UuPzwjx/flHS2IiYUqidZmbWwTrhF1rHApaW9DdJm5VuSwumSnpW0vOSnpM0WtKYxp+fl/SMpOcjgmItNDOztnMB0AcgJF0uac/SbWmD6UqFwFOSnm78fP0TEaMLtcvMzCriAqAPwIcknVe6HR1ihtITgyckjZL0YOPPT0h60k8PzMzqxwVAH4CrlQb82fxNlvSIUmEwStJDjZ9PRsSckg0zM7O+uQBoAlhMaQT+sNJtqbHXJD3c+NzX+Nzr1wlmZp3BBUATwIZK32Qtv/GS7pF0b+Nzn6QHI2Jm0VaZmfUYFwBNANtK+nvpdvSQ6UqFwB3zfEZFxKyirTIz62J+xN2cC6P2WljS1o3PXK8C9ygVA7dLuiUiHivRODOzbuRfdE0A20m6uXQ77G0mKRUDN0m6UdLNEfFq2SaZmdWTC4AmXADUxkyl8QQ3S7pe0g0R8VLZJpmZ1YMLgCZcANTaE3rjCcEVEfF04faYmXUkFwBNuADoKo8pLed8jaSrI2Js4faYmXUEFwBNuADoak9Iuqrx+WtETCrcHjOzIlwANOECoGfMkHSLUjFwuaQ7vXqhmfUKFwBNZCoAfihpgqTFJA2XtJCkxRv/39KShkoa2fgs1vgs2fh3Fmrx2DY4L0q6QtJflJ4OjC/cHjOzyrgAaCJTAbBuRDwxyOMPl7SUUqEw72eZef68nKTlJa3c+Lm8XDjkNFtpyuFfJF2m9HTAmx6ZWddwAdBE6QJgsIBlJa2gVAysKmkVSavN8+fVJa2k9ETCBmaMpIsl/VnStRExrXB7zMxa4gKgiboWAP0BhKQVJa0haW1JazX5jCjRthqZovSq4CJJl/pVgZnVkQuAJrq5AOgPYGVJ6zc+683z5/UlLVKwaZ1ottKaA+dLusC7HZpZXbgAaKLXC4C+NJ4erCZpA0kbSdpknp/LFWxap5ijtInU+ZLOj4hnCrfHzKxPLgCacAEwcMDykjaVtKGkd0raUtJm6t0nBki6TakYOC8inizcHjOzN3EB0IQLgDyAoUoFwcZKTwm2krSdpGVLtquQUZLOkHRGRDxfujFmZi4AmnABUC1gFaViYO5na6WBib1g7muCcyX9LiLGFW6PmfUoFwBNuABoP2B1pdcGW0naXtK2emPhpG41TWmdgd9JuiQiphduj5n1EBcATbgAKG+e1wc7SNpR0k6S1izaqGq9LOkcSWdKusmLDplZ1VwANOECoDM1Xh3MLQh2UHpiMKRoo6rxsKSzJf02Ip4q3BYz61IuAJpwAVAPjZUPt9cbBcG7JS1ctFF5zZZ0taRfS7rQrwjMLCcXAE24AKgnYIRSMbCnpPcpTUfslmt8nNIsgv+LiIdKN8bM6q9bbo5ZuQDoDo21CXaRtIekvZUWMeoGd0o6VWkWwdTSjTGzenIB0IQLgO7TWMVwM6WnA3tKeq/qv+fBJKUZBCdFxAOlG2Nm9eICoAkXAN0PWERp3MAejc+7VO+/D3OfCpzhnQrNrD/qfMOrjAuA3tPYAGk/SQdK2k31HUz4gqTTJJ0aEc+VboyZdS4XAE24AOhtwEhJe0n6YOPnyLItGpRZStsV/zIirindGDPrPC4AmnABYHM1FiTaTtIhkg6WtErZFg3KI5JOUnoq8FrpxphZZ3AB0IQLAGsGGKK0+NB+kg5V2gq5Tl6U9BtJv4iI0aUbY2ZluQBowgWA9QewidKYgQ8q7WFQF9Ml/UHSCRFxT+nGmJl1DGA7WrdO6TysfYA1ga8Bj2S4dtrpRmA/0jRJM+sh3biOulnbRcTTEXF8RLxD0qaSjlcakd/pdlAaLHg3cDgwrHSDzKw9XACYZRYRD0bE1yWtqrTg0KmSJpdt1QK9U9Lpkh4FjgEWLd0gM7O2w68ALDNgUeAw4CJgRobrq2ovAd8Gli7dd2ZmbYMLAKsQsDTpcfuVwJwM11qVXgFOAFYq3W9mZpXDBYC1CbAaafDgMxmuuSpNIRUCq5buMzOzyuACwNoMGArsAZwDzMpw/VVlOnAGsG7pPjOz1ngQoFkHiIjZEXFVRBwqaT1J35c0pnCzmhku6eOSRgEnAd2yxbKZmZ8AWGcAhvDGU4GZGa7JKkwHTgHquESyWU/zEwCzDhURc+Z5KrCmpK9Lerpws95quKQjJT3ZKARWLt0gM+sfFwBmNRARYyLieEnrStpf0iWS5pRt1ZvMLQQeBY4Dli3dIDObPxcAZjXSGCtwcUTsJ2l9pRUHXy7crHktJulrkp5qFAJ13ErZzHoVHgNgNQKMJK3e91SG6za3l0jTHBcu3U9m9mZ+AmBWcxExOSJOkLSO0uuBmwo3aV7LSTpO0iPAkcDQ0g0ys8QFgFmXaAwavDgidpS0vaRzJc0q3Ky51pR0iqTbgfeXboyZuQAw60oR8ffG7IE1JH1X0oTCTZprS0mXA1cB7yzdGLNe5gLArItFxPMRcazSN/DPSnq4bItet7uku0irCnrqoFkBLgDMekBETImIUyVtojRO4M7CTZLS/efjemPq4BKlG2TWS1wAmPWQueMEJG0t6YPqjEJg7tTBh4BPAL4vmbWB/6KZ9aCIICIujIh3S3qvpGtKt0nSqpJ+qzRQcIfCbTHrei4AzHpcRNwYEbsrFQKXlG6PpHdJuoG0B8LqpRtj1q1cAJiZpNcLgf0k7aBUCFCyOZIOUXotcKwXEjLLzwWAmb1JRNzcKAS2lHSmyu45sJik70i6H9i3YDvMuo4LADNrKiLujYjDJW0h6RyVLQTWl3Qx8GdgzYLtMOsaLgDMbL4i4v6I+LCkzZVWFyxpf/m1gFkWLgDMrF8i4sHG6oLbS7q+YFMW0RuvBfYs2A6zWnMBYGYD0lhmeGdJ75N0b8GmrC/pCuBiYLWC7TCrJRcAZjYoEXGVpK0kfVLS0wWbsq/S04B/8SJCZv3nvyxmNmgRMTsiTlf6Nv5ZSS8UaspSkv5Xaf2ATQq1waxWXACYWcsiYmZjr4H1JH1d0qRCTdle0t2NvQU8SNBsPlwAmFk2ETE1Io6XtK6k4yVNK9CMhZT2Frgf2LXA8c1qwQWAmWUXEeMj4uuSNlBaTKiE9SVd3dhyeJlCbTDrWC4AzKwyEfFsYzGhPSQ9UKIJSlsO3wt8oMDxzTqWCwAzq1xEXC3pnZI+IemlAk1YTdJfGhsM+WmAmVwAmFmbRMSciDhD0jsk/VzSrALNOETSg8ABBY5t1lFcAJhZW0XExIg4RtJmkv5SoAkrSbrQTwOs17kAMLMiIuLhiNhb0ockPVGgCYcojQ3Yq8CxzYpzAWBmRUXEBZI2kvQlSZPbfPjVJF3WmCmweJuPbVaUCwAzKy4iZkTECZI2lnSWJNrchI9LugvYts3HNSvGBYCZdYyIGB0RH5e0i6SH23z49ZWWEj4OGN7mY5u1nQsAM+s4EXG9pC0lfVfS9DYeepjSKoK3A5u38bhmbecCwMw6UkRMi4hjlXYcvLnNh99c0i3AF4Bo87HN2sIFgJl1tIh4UNKOSosIjW/joRdRWq/gCmDlNh7XrC1cAJhZx4sIGosIbar27y3wPkn3AHu3+bhmlXIBYGa1EREvNPYW2EfS02089AqSLgFO8DbD1i1cAJhZ7UTEZUpTBo+XNLtdh5X0RUl3AJu26ZhmlXEBYGa1FBGvNrYc3kbSXW089KZKAwQ/0cZjmmXnAqA6mwIbAOsAywFLA+5vs8wi4k6lIuBbkma06bCLSfot8Btg0TYd0ywrT29pAthO1U47mqS0E9okSRMbPyc3+Tmu8Xmp8XkxIl6psF1mtQZsIekMpY2G2uVBSYdGxKg2HtOsZS4AmmhDAdCKaXqjKHhe0guSnpU0RtJoSc9JGhMRJfZcNyuuMUjvu5K+Kmlomw47VdLnGzMVzGrBBUATHV4A9Nd0pWLgKUlPvvUTEWPLNc2seo2/x6crLfHbLr+RdHREvNrGY5oNiguAJrqkAFiQqUrFwD8an4cbn0ci4uWSDTPLpfF+/nhJR6l997sHJH0oIv7RpuOZDYoLgCZ6pACYn7FqFAOSRkm6T9J9EdHOVdjMsgH2kPQrSWu06ZCTJX0yIv7UpuOZDZgLgCZcAPRptKT7Jd3b+HmfpIcjYmbRVpn1A7CkpJ9J+mS7Dinph5L+IyLatVaBWb+5AGjCBcCAzJT0qKQ75/ncFhHtmo5lNiDAXpL+T9IqbTrk9ZI+HBEvtOl4Zv3iAqAJFwAtmyrpbkl3SLpd0s0R8VTRFpnNA1hO0smSPtSmQz4n6ZCIuKVNxzNbIBcATQAbKb37tnzGSLpJqbC6WdLdfnVgpQGfk/QTpZ3/qjZD0hcj4pQ2HMtsgVwANAEsIWmCpGGl29LFXlV6QnCDpOuUnhJ46pS1HbCZpLMlbdSmQ56iVAj4NZkV5QKgD8B1knYu3Y4eMktpcOFVjc+NETGtbJOsVwCLSDpOabOfdrhJ0sEeF2AluQDoA3Co0rcCK2OapL9LukbSFZLujIg5ZZtk3Q74qNLYgCXacLhnJX2wsZeBWdu5AOgDEEq/fHYp3BRLxkm6UqkYuMLfnKwqwHqS/ihpqzYc7jVJn4mI37fhWGZv4gJgPoDllR7VtXMpUVswlF4XXCHpL0qvCzzP2rJp7CdwnKRj1J775A8lfcNPuaydXAAsALCMpN9K2q9wU6xvEyRdKukipacD3jHRsgD2U1rff9k2HO7Pkv4pIqa04VhmLgD6C9hV0qck7S5pZbnvOtV0Sdcq3UwvjojRhdtjNQesJul3knZqw+HukbR/RDzbhmNZj/MvsUEAhunNg4SGS1rsLf/a3H+2qKSFJY1Umla41Dz/3xKN/93X560xbWBQWojoXEnneTEiGyxgqKTvSPoPSUMqPtzzkg6MiNsqPo71OBcAHQwYLml5SStJWlHSCo2fK83zz1dR2uDExcKC3S7pPEnnRsSTpRtj9dNYRvh3kpau+FCvKW0mdE7Fx7Ee5gKgSzTGKqymVAys3vjz6pLWkrSe0msLe8MdSsXAHyPi6dKNsfpozBK4QNJmVR9K6anDf0UEFR/LepALgB4BLKZUCMz9rNv4ub5SsdCrkHSjpLOUngxMLNweq4HG36dfSzq0DYf7raQjvXS25eYCwASMVCoENpG08Tw/11L17zs7yXSltQbmjhnw0sQ2X8CRkk6UtFDFh7pa0ociYlLFx7Ee4gLA+tQoDDaWtIWkLRufzSSNKNmuNnlZqRD4bUR4Z0jrE7CHpD9IWq7iQ90vae+IeK7i41iPcAFgA9KYAbGx3igItpT0LkmLl2xXxR5Setx7ZkSMLd0Y6zzAWkrjAras+FCjJe0TEfdWfBzrAS4ArGWNKVIbKi2dupWkHZRuhN32+mC20hoDp0q60O9kbV7ACEn/q7ReSJWmSDosIi6t+DjW5VwAWCWAJSVtI2lbpYJge3XXU4IxSoOzTvUsApsXcIyk/1G124nPVNpD4IwKj2FdzgWAtUXjKcEWknZUKgh2l7RM0UblMUdp06hTJV3gPQlMkoAdlcaQrFTlYSR9LyKOrfAY1sVcAFgRjYJgc6XlVfdQ2nWx7k8IHlPaSvY3ETGhdGOsrMYSwn9WGiNTpR9L+jevFWAD5QLAOgKwkKTtJL2v8Xm3pKFFGzV4r0k6W9IvIuKu0o2xchrrBfxe0v4VH+osSUd4XIqZ1R6wNHAwcArwLPV1HXAg0G0DIq2fgKHAT9twrV1GKjjMzLoHsCXwTeBWYHYbbqa5PQZ8AVhiwdlaNwI+D8yq+Dq7BWjH1sVmZu0HrAgcAVwAvFLxDTW3l4EfAWuU7kdrP2AvYHLF19j9gPf+MLPuBiwM7AGcAIyt+Maa02zgHGCT0n1o7QVsCjxV8fX1BLBu6VzNzNqC9K51R1IxMKbiG2wuc4CLge1L95+1D7AycHvF19YYYNPSuZqZtRWpGNgF+CXwYsU32lyuA95fuu+sPYDFgAsrvqbGAlUvT2xm1pmAYcDewJnUY8zAXcBBgKfpdjlgCPDjiq+nicAOpXM1MysKWBT4COmx+4yKb7ytugf4IC4Euh7wL8DMCq+lKcBupfM0M+sIwLLA0cAdFd54c3Ah0ANIMwSmVHgdvYpfMZmZvRmwMXAcnT2T4H7gEFwIdC1ga+ClCq+h6cABpfM0M+s4wHDgQ8AlVL9oy2Ddib/JdS1gE+C5Cq8fFwFmZvMDrAJ8m85divhaYNvS/WT5AWsBj1R47cwADi6dp5lZRyPNIjgQuILOXIb4T3hBoa4DrEB62lOVmcBhpfM0M6sFYD3SUr5VvqcdjFnAb4E1S/eR5QOMJK0PUeV14yLAzKy/gBHAJ4G7K7w5D8ZrpMGMS5buI8uDdK1VuWDQTOCQ0nmamdUOafnhc6h2HvdAjQOOAYaV7h9rHWlly9MqvF78JMDMbLCAdUjfvidUeKMeqIfxt7uuAARwfIXXygw8O8DMbPBI722/QmfNHrgC2Kx031jrgK+TNpGqwnRgn9I5mpnVGmlNgU8Coyq6WQ/ULOBEYOnSfWOtAf6Z6tapmAZ8oHSOZma1R3p0ux9wU0U37IEaTxofMLR039jgAYdS3biTV4FdSudoZtY1gJ2Byyq6aQ/UbcB7SveJDR5pY6uqngRM9vVhZpYZ8E7SzIGq3uX21xzgDGDF0n1ig0PaH6KqJwETgS1L52hm1nWAdwMXUb4QmAh8FhhSuk9s4Kj2dcALwAalczQz60rA5nTGE4GbgE1L94cNHGkTqxkVXRfPAmuXztHMrGsB7yLtRFjSDOAHwCKl+8MGhmqLgEeBlUrnaGbW1YBtSbv9lfQ43na4doB9SFP5qnAfnkZqZla9xs38nopu5v11FrBc6b6w/gMOIC3qU4XrgBGlczQz63qkdQQOAf5R0Q29P8YCh5fuC+s/YC/S5lBVuAjvM2Fm1h7AQsBRlN2K+Dw8ZbA2gH2p7nXAaUCUztHMrGcAS5I2hanqxr4g44CPle4H6x+qHRPwg9L5mZn1HGAt4I+Umzp4EbBK6X6wBQM+SHXrBBxTOj8zs55EmjFQap+BCcBHSveBLRjwCaopFmcDB5fOz8ysJ5EGCn4EeK6CG3x//AFPD+t4pE2gqvAasEPp/MzMehawKHAsZcYHPI/3ku94wHcqOv/jgQ1L52dm1tOA9YBLK7rRz88c4BRgsdJ9YH0DflTR+X8CrxZoZlYeaUGYJyq62c/PKGCr0vlbc6RXRr+u6NzfjgtAM7PygEWA71HdynB9mQ78K54r3pGAoaR1HapwCTC0dI5mZiYJWB+4sqIb/vxcCaxcOn97O2A4cFlF5/2E0vmZmVkD6dHv4cCLFd30+zIW2Kt0/vZ2pIGj11d03o8qnZ+Zmc0DWIY0WK+diwjNAU4AhpfO396MtLrknRWc81nAvqXzMzOztwB2J237205/B9Yqnbu9GbAi1Ww49TKwSen8zMzsLYDFSN/MZ1dw8+/LBPzNsOOQlpd+voLz/QSwQun8zMysCWBH4JEKbv59mQP8AI8W7yjAu4EpFZzvm4ARpfMzM7MmgBHAcaR3t+1yHZ4l0FFIOwhWcQ2cUTo3MzObD9IGQ6Mq+AXQl9HAe0vnbW8AvlDRuf5K6dzMzGw+SE8Dfkr7ZgrMxAsHdRTgJxWc51nAnqVzMzOzBQB2A56p4BdBX87GS8l2BGAIcH4F53gCsH7p/MzMbAGAkaR1A9rlXmDt0nnb60tJ31zBOX4YWLJ0fmZm1g/AwcC4Cn4ZNDMO2KN0ziYBy1HNGgGX41kgZmb1AKxC+/YUmAl8sXTOJgHvAMZXcI6/Vzq3XuXBNv0ELCXpIEm7SlpD0tx3lNMkvfaWf32ypNmSJjZ+TpY0Q9JUSS9LmjTPZ+7/nhARb41j1pFIA/W+KOmHktqxtO/vJX3Gf0fKIs3U+KuknPP5kXRwRFyQMab1gwuABWjc6L4i6ZuSlqr4cFMkjW18xkl6UdILkp6X9Kyk5ySNiYixFbfDrF+AbZV+Obfjff0tkg709V8WcJjSOc/5++NlSVtHxGMZY9oCuACYD2CYpN9JOrR0W95iuqTRSkXB45KemPdnRIwv2DbrMaSBXKdI+nAbDve0pH0j4oE2HMv6AHxD0g8yh71f0nYRMTVzXOuDC4D5IO1nXcf3j5Mk/UPSQ43Pw5JGSXoiImaVbJh1L+BwSf+rN16PVWWKpI9GxMUVH8fmA/i1pE9lDvvHiPhI5pjWBxcAfQC2lnSruquPZigVBvdJumfuJyJeKtoq6xrAxpLOk7RRxYeaLenLEfGLio9jfQAWkXSjpHdlDv2liDghc0xropt+uWUFnCvp4NLtaJMxku6VdKek2yTdHhEvlG2S1RWwuKTTJB3WhsP9UukXhp9sFQCsIel2STl3+pspadeIuCljTGvCBUATwHBJ4yUtXrotBT2jVAy8/vEIbBsI4GhJP1b1swQul3RoRLxS8XGsCWBnSVdKWihj2GclbREREzLGtLdwAdAEsJ6kR0u3o8PMUnpKcJPSY79rI2Jc2SZZpwO2knSuqp8lcL+kvSPiuYqPY00AR0k6MXPYSyXtFxFkjmsNLgCaALZRmnJkfZujNLDwWklXS/pbRLxctknWiYBlJZ0l6QMVH+opSXtFxMMVH8eaAH4l6YjMYb8cET/LHNMaXAA0AWwn6ebS7aiZ2ZLuUCoGrpZ0c0RMK9sk6xSN9TT+XWnq2JAKDzVR0gERcUOFx7AmgIWU/u7n3NZ5pqSdIsJfyCrgAqAJFwBZvKb0uuASSRdGxNOF22MdANhP6WnAyAoPM13S4RFxToXHsCaAlZS+CKyaMezjkraKiEkZY5pcADTlAqASD0q6rPG5ISJmF26PFQJsKOlCSe+o8DCzJR0TEb+s8BjWRGN1yOskLZwx7LkR0WkLstVelY/izOa1iaR/Uxoz8CJwBnBIY8qY9ZDGO/rtlUaOV2WopBOB71Z4DGui8bj+qMxhDwGOzByz5/kJQBN+AtBWU5Wmcf1J0sURMblwe6xNSNvAHifpqxUf6hdKawXMqfg4Ng/gl5I+nzHka5K2iYj7M8bsaS4AmnABUMx0pW+F50q6ICKmFG6PtQHwCUmnqtr1As6S9CkvGNQ+jUGBV0naKWPYh5Q2DfJ+ARm4AGjCBUBHmCLpIkl/lHRFRMwo3B6rELC90lOgnCvKvdUlSgsGeUGrNgFWlHS3pJUzhv11RHw6Y7ye5QKgiUwFwHVKi+csrbR39iKSlpS0aOPP1n/jJP1B0hkRcUfpxlg1gHWUfklXuY/A3yTt71dN7QPsqvRkb2jGsIdHxJkZ4/UkFwBNZCoA1o2IJ/qIP0LSMkrFwbw/V5S0ktK3oFUlLa9UOS/dYlu6yYOSTpf0u4gYU7oxlhewlNIroD0qPMwdSgsGeSXLNgG+J+lbGUNOUZoa+I+MMXuOC4Amqi4ABtGeRSWtJWkNSas3fq4haYPGZ5kcx6mZ2UqDB0+VdKmnFXaPxrvjEyVVOer7AUl7RMTYCo9hDY0Bn1dL2jlj2LslbevXg4PnAqCJTisAFgRYWtI6SlPtNp7nz+9Q3sdunep5SWdIOjkinircFssE+HelWQJV3acekrR7RDxfUXybB7CK0hbky2cM+8OI+FrGeD3FBUATdSsA+tLY1XB9SRsqPSnYQtLWqn5jllLmPhU4SdJfPO2r/oCDJZ2pNI6mCo9K2s2bCLUHsJvSeIBca9DMUSrirssUr6e4AGiiWwqAvgBLStpM0lbzfDYu2qj8nlB6PXCatxStt8Ygsj8pDaKtwtNKRUBH/n3tNsB/S/p6xpDPSdo8IiZmjNkTXAA00e0FQDON1whbSdqx8XNrpUGJdTdNaVDZDyPigdKNscEBNlVaRnr1ig7xjNI3yccqim8NwDClFUF3zBj29Ij4ZMZ41quA7WjdOqXzaBWwEfB54FzgxQx9UtIc4HKgytHlViFgDeCBCq+RZ4H1S+fZC4DVgJcyn78Plc7LugAuAJoC1gGOBM4Bxmfoo1LuAQ4nfROxGgGWBm6o8Np4li78u9uJgH1IhXku40gDDc0GDxcACwQMBbYCvgpcCkzO0Gft9iTwRWCx0v1p/QcsClxW4XXxFLBm6Tx7AfDDzOfu0tI5Wc3hAmDASAXBjsAJwDMZ+q+dXgKOJS1CYzUADAf+WOE14SKgDYBhwI2Zz92nSudlNYYLgJYBmwBfI/3lzvmYr0qTgeOAXlxYqXZIRecpFV4PjwA517C3JoA1gYkZz9vLwGql87KawgVAVqTBW0cBfwWmZ+jbqk0Cvg8sV7rvbMFIhWZVXAS0AfDxzOftSsCz3GzgcAFQGWBJ4MPABcC0DP1cpcnAd0nrJlgHA/6d6p403Y+LwcoB52U+b58pnZPVEC4A2gJYijQa/0o6+zXBeNIYgZGl+8z6BnwWmF3RNXAPHiNSKWA54PmM52wSsEbpvKxmcAHQdqT3gP8BjMrQ91V5gTRrYOHS/WXNUW0RcC1pJ0+rCLBv5nN2BX4VYAOBC4CiSAMIjwPGZDgPVXiGtB5CrvXMLSPgo8Csis79RXj9iEoBp2U+Z54VYP2HC4COQBrl/X7SdK8ZGc5JbrcCO5XuJ3s74DBgZkXn/Sxc/FUGWAx4NOP5ehkvEGT9hQuAjgOsSBrt/VSGc5PblcBmpfvI3gw4lOoKx1+Wzq+bATuQ9ynO2aVzsprABUDHAoYAewAX01kDB2eS5qR7tHgHAQ6muicB3y2dXzcDjs98vg4onZPV2pC5qwAAIABJREFUAC4AagFYjzRWYFyG85XLeOAYYGjp/rGEaouAL5TOr1sBCwP3ZjxXY/BMDlsQXADUCjACOAS4KcN5y+Uu4L2l+8YS0uuAKgYGzgYOKp1ftyINCH4t4/k6qXRO1uFwAVBbwE6kjWI64fXAHNKAsZVK94tJwBFUM0XwVWC70vl1K+DrGc/VHFyY2/zgAqD2gM2AM6ju0e9AvIxfC3QEUhFQRXE4DtiwdH7diDTu528Zz9XDeC0P6wsuALoGsDZph8JXM5zTVt0JbF26T3odcDTVFAFP4Kc9lSCN98n5d/gbpXOyDoULgK4DrEQaMDgpw7ltxUzgp8Dipfukl1HdBkJ3+NxWg7yvAqYCa5fOyToQLgC6FrAE6XH86AznuBWjgf1L90cvIxWEVbgUv+7JDliItCdDLpeUzsk6EC4Auh6wCPBVyk8h/A2wdOn+6EVAACdXdF5PKJ1fNwK2Ju9sDs/gsDfDBUDPABYnPQ4u+WrgBeDg0n3Ri0gDzP5Q0Xk9qnR+3Qj4WcZzNAZv923zwgVAzwFWIA0WnJ7h3A/WOXglwbYDhgN/qeB8zgTeXzq/bkMq2nMuCf6T0jlZB8EFQM8CVict6VvVbnILMhYvWdp2wKLAjRWcz5eBTUrn122AfTKeoxk+R/Y6XAD0PGAj0jfyUgsKnYPHBrQVsCR5l56d60lgxdL5dRvSLqG5XF06H+sQuACwBmAb8i5CMhBPAjuX7oNeAqxBNTNEbsKLz2RF2iF0fMZzdEjpnKwD4ALA5kEaLf4R4LkM18VAzSbtirZQ6X7oFcCmwMQKzuXppXPrNsCnM56fZ4HFSudkheECwJogvSc+lrybk/TX7cD6pfugVwC7ANMqOI9Hl86tm5CK86synp//LJ2TFYYLAJsP0rKkF2e4RgZqMnBk6fx7BXAY+TcPmgnsWjq3bgKsT75lgqcBG5TOyQrCBYD1A7AHMCrDtTJQ5+B9zduCapYMfhFYo3Ru3QT4fxnPz0Wl87GCcAFg/URanvQY0rfzdvoH8M7S+fcC4LQKzt+dwCKlc+sWpL+H92c8P3uUzskKwQWADRCwGnBuhutmIF4FPl06925H+uWS8z3zXL8rnVs3AXbLeG4eBIaVzskKwAWADRKwL+2fLXAGHr1cKWBp0j7yuX2pdG7dBDg/47nxeJtehAsAawGwFGk1wXYuIvQQXs2sUsDapPf3Oc0EdiydW7cgreMwNdO5GUuX7xMwpHQDzLpNRLwcEZ+VtJekZ9p02A0l3QJ8qE3H6zkR8aSkgyRNzxh2mKRzgZUyxuxZEfGMpB9nCreCpG9kimV1gZ8AWCaktQOOI/90sr7MaRzPxX1FgE9UcN6uAYaWzq0bkLb6zrVZ0HRgvdI5WRvhAsAyA3akmnfIfbkMTxWsDPA/FZyz75XOq1sAH854Xs4unY+1ES4ArAKkbybH0b6dBv+BxwVUAhhKKrJymoN3gswGuC7jedmudD7WJrgAsAoBOwHPZLjG+mMSsHfpnLsRsAzweObzNQ5Ys3Ru3QDYgnzF9rWl86mC3xOatVlEXC9pM0l/aMPhRkq6CPhaG47VUyJigqR9JU3OGHZZSefgzZ9aFhH3SDotU7hdcCHdG/ATAGsT4HBgSobrrT9Ow79YsgM+SP4pn96UJgPSU5pxmc7JfXigZvfDBYC1EbAhcFeGa64/rsSDA7MDvp/5PM0Gdi+dVzcAjs54Xj5ROh+rGC4ArM2AhYGf0p7Fgx7y9ZkXMAS4PPN5Gg0sVzq3ugOGkb695/A0MKJ0Trl4DIBZB4iI6RHxZUl7Snq+4sNtKOk2YPuKj9MzImKOpH9S3oWfVpH0WyAyxuw5ETFLUq4ll9eQdHSmWNaJ8BMAKwhYkfzfJpt5BQ9sygp4D2nxmJyOKZ1XNwAuynQ+xgEjS+djFcEFgBUGBGkv+qpXEJwFfK50vt0E+ELmczQN2KJ0XnUHbEq+aYHfKZ2PVQQXANYhgP1Jc/mrdmzpXLsJcGbm8/MgsEjpvOoOOD3T+XgZWKZ0PlYBXABYBwHWBx7IcE0uyEl4D4EsgMVJv7RzyrXJTc8C1iQ9Ucnhv0vnYxXABYB1GNIvlHMzXJcL8ge8VkAWwCbk25oW0uug3UrnVXfAzzKdjyl4F8fugwsA60C8MS6g6r0ErgIWL51vNwD+OfO5eQ4/em4JsBz5Xqv9rHQ+lhkuAKyDAR8Axme4RufnVmDZ0rl2A+D3mc/NWaVzqjvgO5nOxTRg9dL5WEa4ALAOB6wL3JvhOp2fu4EVSudad8CSwBOZz81hpfOqM9IrtRcynYv/LZ3PYHnAj1kNRcTjkraXdFGFh9lC0rX4PWdLImKSpI9Jmpkx7C99XgYvIqZI+n6mcEcAq2WK1VYuAMxqKiKmSjpI0i8qPMzGkv5W1xtcp4iIv0vKOXd8GUmnZozXi06W9HiGOAtL8m6b3QK/ArCaAY6h2kWDngTWLp1nnZH2C/hr5vPiVwEtAP4p03mYBqxaOh/LABcAVkOkbWlfzXDt9uVpYN3SedYZsAr5tqelEWvF0nnVFakouzvTufhp6XwGyq8AzLpERPxJ0h6SxlV0iDWUxgT4ScAgRcQYSf+cMeSykn6eMV5PaWzi9M1M4T4HrJIpVlu4ADDrIhFxs6RtJD1S0SFWl3Sdi4DBaxRqv8sY8lDgQxnj9ZSIuFTSDRlCjZD0rxniWEn4FYDVHLAMcH2G67gvTwFrls6zroClgGcyno8X8LoNgwbsnOk8TAWWL51Pf/kJgFkXiogJkt4v6fyKDrGmpCvwVLRBiYiXJX1KEplCrijpJ5li9ZyI+Jukv2UItaikL2SIY6XgJwDWJYChwP9luJ778jAuAgYN+Gnm87FH6ZzqCtg10zmYACxROh8bJFwAWBch7SHwiwzXdF/uAZYqnWcdAYsAozKei38AI0rnVVfA3zKdh6+WzsUGCRcA1oWA72a4rvvyd2Cx0jnWEbANeTd4+l7pnOoK2C3TOXgeF2L1hAsA61Kk3QSrciWwcOkc6wj4n4znYTqwcemc6op8TwE+UzoXGwRcAFgXA44C5mS4xps5HxhaOse6ARYm76uA64EonVcdAXtkOgeP4b8L9YMLAOtypH3qq1o6+KTS+dUR8N7M58TfQAeJ9Eorh0NK52IDhAsA6wHAR4CZGa71Zo4tnV8dAT/PeA7GA8uVzqmOgP0znYNbS+diA4QLAOsRwEGkd8ZV+HTp/OoGWJT06DiXk0vnVEekmTP3ZzoHO5bOxwYAFwDWQ4ADqeZJwCzggNL51Q353kFDeqXw7tI51RHwsUzn4ILSudgA4ALAegxpW9QqxgRMBbYtnV/dAGdmPAe3A171dYBIi2g9mqH/ZwPrlc6nGV8UZqaIOEvSZ5Rvadq5FpV0MbB+5rjd7svKt6vjuyV9MlOsnhERs5VneeUhko7JEMfaAT8BsB4FfDHDtd/Mw8DSpfOrE+AzGft/LF6tccBI0zNHZ+j/qXTgZk1+AmBmr4uIn0v6dgWh3yHpT8DwCmJ3q18pzza1krSCJK8QOEARMV3SLzKEWlTSkRniZOWFIpoAtpN0c4th/iTpWUkTGp+J8/x5gqRxjR3bzDoOcJykr1UQ+uSI+JcK4nYl0op+d0vKUTjNkrRFRDyYIVbPID25ekbS4i2GGi1p7YiY2XqrrDLkeQXQ38dCDwJ/AU4Bvgl8HNgJWAsP3LGCqG4DIb8PHQDgvzL2/VWl86kj4IRM/X9o6Vzm5ScATZDnCUAOMyQ9JulBSaPm+flQRMwp2TDrfqSlZE+R9M+ZQ8+RdGBEXJw5blcCFlH6u792ppAfiIgrMsXqCcBakh6VNKzFUDdGxHtbb5FVhvY9ARisqcAdwMnAJ4GN8dMCqwBpKtR5FVzDk4CNSudXF8AHM/b9KKDVX2Q9Bzg3U/9vVToXmw86vwBoZjJwI+lR1SHACqX70boDMAK4qYJr9hE8Mr3fgMsy9v1nS+dTN8DWmfr+V6VzmcuvAJqgc14BtOoJSVc1Pn+NiEmF22M1RZrCdLOkDTKHvkLSPo051zYfpLUU7peUY8vlFyVt4HvCwAA3StqhxTDTJa0RES9maFJL/Ni4u62jNPXkHEnjSa8NjiMtNerpWNZvETFe0l5Kvzhyer+k72SO2ZUi4lFJP88UbgVVM8uj2+VYGGhhSUdkiNMyPwFoooueAMzPJEmXKU1X/EtETCncHqsBYHtJV0sakTOspIMi4sKMMbsSsISkhyWtkiHcNKWnAM9miNUTgKGSHpe0ZouhnpG0TuknX34C0NyM0g1ogyUlfUTp6cBLwEXAEXj7UJuPiLhZ0seVRvJnCyvpDGDDjDG7UkS8IunfM4UbIenYTLF6QuMX9kkZQq0hae8McVriJwBNAKtKeq50OwqZLel6SedJ+qMXK7JmgH+V9D+Zwz4gaZuIeDVz3K5Cmp55g1p/Fy2lv++bR8SoDLF6AmlhoOeUVvdrxaURsW+GJllOpL2gn8k04rPOpgMXk2YVeMyAvQnw8wquud+VzqsOgG2BOZn6/LzS+dQNcFqGfp8NtPoqwaoA/DjDCe4mL5Fu+N5b3CS9vkbARRVca58unVsdAGdn7HNv2TwAwKbkKcCK7s/gVwB9AFZUWvlpidJt6UCjJJ0s6fSImFy6MVYOsJjSgNnNM4Z9TdJ2EXFvxphdB1hb6e9ijgGZf4uIXTLE6RnAdZJ2bjHMC0pTAovsD+BBgH2IiLFKUzVy74/eDTZWmo70HHAiXtGtZ0XEVEkHKW12lcsiks4ljXi3PkTEk8qzU50k7QzskSlWrzgxQ4yVJO2XIY5VAfgEMC3Do55uNge4EjiANE3GegywF+mdZk5nls6r0wFLkV7P5XAbaYCh9QMwDBidod+9L0MnI73vuZj8N7hu9CTwZdKjYeshwH9UcD39U+m8Oh1wdMb+9rfRAQC+l6HPZ5Ne57Sdq70BII0L2FXSqpKWb/zjhfXGdJAllHaLCknLSFq28VlOeRdOqYNxkk6QdGJEvFy6MVY90rfHCyQdmDHsK5K2jIjHM8bsKsBCSmMB1ssQ7i5J744Iv/rsB2B1SU9KavXJ53cj4tjWWzQwLgDahPSNeG5BsLyklSWtpbTF59yfq6r1C6nTTJb0v5J+2glrX1u1gJGSbpWUc1Gf2yTtWGqgVB0AH5WUawrl/t6quf+AiyW1Op//OUlrtXtlQBcAHaRRya+uVAxsqDSyenNJm0pavGDTcnhN0v9J+pGXHu1upBX9bpU0MmPY4yLiGxnjdRXSduB3StoiQzg/BRgAYF9JOQqmPSPiygxxrJuQFiZal7Qn+LeB88kz+KSE14AfAcuU7lerDnAg+RaqgfSedKfSeXUyYN+M/b1/6XzqAhgCPJWhz39fOherEWAV0ip9J5B2+qvTIMVXSDsTeqpXlwL+K/M18yTpFYP1AbguU1/fhWcE9BvwrQx9/hppmWGzgQOWJE3H+m/gbvJ+A6vKaOCzwLDS/Wd5kb4Z/TXz9XJa6bw6GbBTxr72U4B+In0Zm5Whz48qnYt1CWBl4FPAOcCEDBdnlR4Bco4etw5AugZfzHyteAOV+QAuy9TPt5XOpU6ASzL0+Z2l87AuRFq3fUfg+8BDGS7UqlwOvKN0f1k+wD7kfRr1PN62uk/AuzL29+6l86kL4OBMfe4NgqxawDtJxcCjmS7anKaTXmN4MaEuQRqnktM5pXPqZKSFy3LwqPR+AoaT52nXYaVzsR4CbAIcS+cVA6OBw/FgpNoDFiaNS8npoNJ5dSpgK/I9BfBOgf0E/DRDfx9TOg/rQaTphjsBZ5BGpHaKq/FrgdoDNgamZrwuxuBR030CLs3Uz+eXzqUugM0y9PfnSudhPY40o+BI8n9rG6zXSE8pFirdNzZ4wOcyXxe/Lp1TpwLek6mPZ5MWd7J+IG2q1IrdSudg9jpgW+BXwJRW7yQZ3AZsWrpPbPCACzJeD3OAPUvn1KnINyPAhVY/kaY1D9ZEYHjpHMzeBlgG+H+kUdglTQO+iZ8G1BLpOno24/XwJFD3pbIrAWyTqY+nA6uVzqcOgEUY/D3y+NLtN5sv0oCuI4AHMt1cBusuIMfa59ZmwM7kXbnyx6Vz6lTAFZn6+LjSudQFaYXWgXoCr4xqdUJaW+Biyq06OJM0NmBI6b6wgSHPiOl5r4MtS+fUiYDdMvXxBDw1t99ITyn760U8zsLqivSoMdc3jcG4HFixdD9Y/wGLAY9nvAb+jgvBpoBbM/Wxl6odAOAjwAsL6NNr8OsV6wbAdsBVmW42A/UisE/pPrD+A3Yh79Ojz5bOqRMBB2Xq30dwkTUgwEjS7JfLSI/5nye9Pj0Fj/i3bkR6NZBrZ7KBmENadW7h0n1g/dO4EeYyAVihdE6dhrQx04OZ+ni/0vmYWQ0AewP3ZbrxDMQdwLql87cFI605kXNWwOmlc+pEwKcz9e81pXMxs5ogffs4HBib6QbUX5OAA0rnbwtG2sY6lznAe0vn1GmAhYBnMvWxB1yaWf8BSwHHkebxt8ucxjH93rLDAWdmPO93+py/HfDVTP37q9K5mFkNARuQb7ey/roIWLJ07tY3YFkWPGJ6ID5dOqdOQxqQNilD374KLFM6HzOrKWBf4KkMN6P+egBYv3Te1jfy7akO6ZWTi763AH6eqX+/XDoXM6sxYHHSqP2cq8LNz0Tg/aXztr4B52c83z8pnU+nAdYjz9+3R/FrFjNrFWnDoXYtLTwT+EzpnK05YA3ybRs8A9igdE6dBvhzpv59X+lczKwLkEYpf432DRI8AX+D6UjAtzKe5wtK59NpyLc8sPvWzPIBNqb1PbX760y8/WbHAUaQd5ngHUvn1GmAuzP06yxgzdK5mFkXAYaRNvmZleEmtSA3AsuVztneDDgg4zm+FYjSOXUS4FOZ+va7pXMxsy5E2jb26Uw3qvl5AFijdL72ZqRNnnI5tHQ+nYS0rfeLGfr1WWBo6XzMrAuRloo9K8ONakGextMEOwppxHquMSFP4D0i3gT4n0x965k1ZlYd0nLCkzPdsPoyGti4dK72BuCHGc/v0aXz6STAuuSZEnhO6VzMrMuRVhGserrgeOA9pXO1BFiCVJjlMAZYtHROnQS4MkO/TgeWL52LDYynQFmtRMQ/JG0r6dwKD7OMpCuA7Ss8hvVTRLwi6euZwq0s6ahMsbrFSRliDJf0sQxxzMzmDwjSmgFVzhKYDOxSOld7/XzflOm8jgNGls6pU5Bm3DyXoV/vL52LmfUQYA/gpQw3r768iouAjgBsn/G8fqd0Pp2ENOU2h61L52L953mxVnukhUgulLRFRYd4RdKeEXFLRfGtn4CLJO2XIdRkSetExPgMsWoPWE3SU5Janc53ckT8S+st6l2k1Um3lfROSSMlzZR0p6RbI2JaybaZdSTSpkJVbjH8MrBV6Tx7HbAp+TaO+s/S+XQS4LIMfToer6w5KMAQ4HP0vUPqWOD/AQuVbqtZxwGGAidmuIn15SVgk9J59jryrQkxCVi6dD6dAjgkU78eUDqXugEWo/+LXt0OrFi6zWYdCTiG6rYXfgF4R+kcexmwFmnaWQ7fKp1PpyCtDDguQ59WOUOn65C++V81wD6+B1i8dNvNOhLp28xrGW5mzTwFrF46x14G/DLTuRwPLFE6n04B/DxDn74GLFk6l7oAvjzIfv5p6babdSzSqPEJGW5ozTwALFU6x14FrAxMyXQuc60xUHvAlpn69NOlc6kD0lOX5wfZx9OBFUrnYNaxgHeSBs9U4Ro84KkY4AeZzuNYvDrg68izTfA1pfOoA2DfFvv5i60c3ysBWleLiHsl7STpuQrC7yrpdLzNbCk/lDQhQ5wVJB2RIU63+E2GGDvj12T9sU2L//2erfzHLgCs60XEI5J2lPRYBeEPk/S9CuLaAkTEy5J+lCncV4BhmWLV3R+U5p63Yogkb7+8YK3OQtmJFqYFugCwnhARTyt9Y3+4gvDfxO88S/m5pJcyxFlb0ocyxKm9iHhJ0pUZQh2SIUa3e63F/34JSYNen8QFgPWMiHhO0s6S7qsg/Ml4T/S2i4hXlYqAHL6aKU43+EOGGO8B1sgQp5s9mCHGrhlimPUGYHngwRYH3zQzCdiodH69BliatHFTDr6Z6vWFaXLMsvhK6Vw6GWl781b9dbDH9xMA6zmNR5zvl/Rk5tAjJZ2DF+hoq4iYKOmUTOH+LVOcWouIqZIuzhDKrwHmo7G9easDlHcAFs7RHrOeAaxB3+tut+JPeGZAWwErkWfhpznAhqXz6QTAfpn6c83SuXQy4PQM/bzzYI7tJwDWsyLiGUnvk/RC5tAHSvpa5pg2HxHxgqQzc4SSdFSGON3gckmt7pYYkg7K0JZudm2GGH51ZTYYwOakJWFzmg3sVTq3XgKsC8zKcO5ewUvZSpKAkzP0502l8+hkwOoZ+vj60nmY1RZp2eDceweMB9YpnVsvAc7OdO6OKZ1LJwB2z9CXs4GVS+fSyYBHW+zj6cBiAz2uXwGYSYqImyV9XNKcjGGXURoU6OWC2+cHksgQ5wuA74/SdWp9nYUhkvZtvSld7eoW//vhknYY6H/kC9ysISLOk/SNzGG3kvT9zDGtD42lnwc9LWoe60rq+Vc4ETFb0kUZQu2XIUY38zgAs05Anvee85qDFwlqG2CXTOctxzS42gP2ytCXrzKIR9S9AliBdJ9oxa2l8zCrPWAo8OdW73hvMRZYqXRuvQK4M8M5m4VXshMwHJiYoT8PKJ1LJwPua7F/ZwEjB3JMvwIwe4vGY89/knRPxrArSPotXh+gXXIsDDRU0qcyxKm1iJihPIsC+TXA/LW6hfJQDXB3QRcAZk1ExCuSDlCejWbmer8kL43aHmdJmpghzmeAoRni1N35GWLs576cr1YLAEnaLkMMM5Mk4H3kmVs+13TgnaXz6gXAzzOds54fwQ4sQp69AfwLqg/AkqQpk624bCDH9BMAs/mIiCslfStjyOGSfoP3nm+Hk5RnSuCRGWLUWkS8JumqDKE+kCFGV4qISWp9d8DtGMD0VRcAZgt2nKTzMsbbUl4quHIR8ZDSPPZW7YUHcErSJRliuACYv5tb/O+XkrRBf/9lFwBmCxARKA0GG5Ux7LeBTTPGs+ZOyhBjmKSPZohTd5eq9Scq7waWz9GYLvX3DDH6/ZrFBYBZP0TEFEkHS5qSKeRwSb/Cg6KqdqGkMRnifCJDjFqLiOcl3dlimCGS9sjQnG7lAsCsEzUeKX8xY8j3yLMCKhURMyWdliHU5sAWGeLU3aUZYnhRrL49qtZnHm2boyFm1gT5NpyBtELaO0rn1M2AVYGZGc7Vz0rnUhqwVYZ+fB6vh9En4KIW+3c2/dzN0k8AzAbuc5KezRRrEUm/zBTLmoiI0ZL+nCHUR4CFMsSps7skjW4xxkqSPBW2b62+Bhgiaev+/otmNgARMVHSxyTNzhRyd+CQTLGsud9miLGCpD0zxKmtxoDYyzOE8muAvrU6E0Dq5zgAFwBmgxARN0j6UcaQPwEWzxjP3uxySWMzxPlwhhh1d2WGGLtliNGtbpM0s8UYHgdgViVgGHBLi+/r5vWD0jl1M+AXGc7RZGCR0rmUBCxL6yvWTQWGl86lUwG3t9i/E+jHOAs/ATAbpIiYpTQ9bFqmkP+KBwRW6XcZYiwhae8McWorIsYrjQVoxaLq53vqHtXqOICl1Y8FgVwAmLUgIh6RdHymcMMl/SJTLHuLiLhF0iMZQvk1QJ7XALtmiNGtcowD2GpB/4ILALPW/UCtr+E91/uAAzPFsrf7fYYY++DxGi4AqnVbhhieaWHWDsB2tP5edK6H8WZBlQDWBeZkOEeHlc6lJGA48EqLffgaMKJ0Lp0ICNJ7/FZcsaDj+AmAWQYR8Xflm8//DklHZIpl84iIxyXdkiHUBzPEqK2ImCHphhbDjFBaDdPeojHd8t4Wwyxw5UoXAGb5fEPSk5liHQssmimWvVmOwYB7+9urrs4Qw68B+nZ3i//9CsDK8/sXXACYZRIRUyUdkyncysq774C94Wy1Ps96cUm7Z2hLnV2fIcaOGWJ0q1YLAGkB4wBcAJhlFBEXK89KaZL0NWDZTLGsISLGKc856unXAEq/oCa3GGNbPN6lL61OtZQW8BrABYBZfl9R698wJWkpSV/LEMfe7uwMMfanh7dzbqyD0ep0tcUlbZahOd3oYUmvthjDTwDM2qmxbfBJmcIdDayWKZa94TJJs1qMsbyk7TO0pc5yvAbYIUOMrhMRsyU90GKY+RYAfvTSACwmaSNJqzU+KzR+rihpSaURqyOUdm+bu4TljMbPSUqV2vh5Ps9JemruJyImtSEN6xzHSvqopOVajLOIpK9K+lKrDbI3RMRE4Aa1Pghtb7U+Gr7OchQA20s6MUOcbnSXWpspsQGwaEQ0fZLQk3syA+soVZ2bSdpE0saS1lS1/TFa0n2Nz72SbomIXCPGrQMBn1eeqYGvSlo7Il7MEMsagC9J+mmLYe6LiJ5dcIW0nv9EpaV9B+uZiFgzU5O6CnCkpFNaDLNNRORYWKiegM2ALwJnA6NbXFwhp9HAucAXgPVL95PlBQwF7st0rXy/dD7dBlgr07lZo3QuJQFXZ+hDv+ZqAtg6Q98eWTqPtgIWBvYk7f71VIYObJfHgBOB9+GRsV0B2DfTtTEJWKp0Pt2GPAVab91g3wL4boY+9P4KTQAjgJkt9m2fTyG7ZhAgMIT0i/MsSS9JukLS0UqP9utiXUlHSfqrpDHAScAuQNecp14TEZcoz8pzIyV9PkMce7M/Z4ixV4YYdZbj+vbOgE1ExDRJD7UYZoErAtYWsB7wn8AzLVZJnewx4BssYFUn60ykwjSHF/HqgFmR5xHrK/Tw3vbAMrS+v8J1pfPoVMDvW+zbPgeg1/abJbA78BdJ/5D0TUmrF25SldZV2nHuGeAcYJvSDbL+i4grlWe09PKSevpxcwUcn0vgAAAaW0lEQVTukDSmxRiLS9ouQ1tqKSImKN2HW/Eu/KSzL60+ARhJH18ea9XhwELAx4C7JF0l6QPqrZkMwyQdIukW4AbgAKCX8q+z/8gU50v08OIzuTU2Xbk4Q6jdMsSos1tb/O+XUNoEy96u1QJA6qNva1EAkN7vHy7pUUlnSdqycJM6wY6SLpR0J7Bf6cbY/EXEjUpFa6vWlLRPhjj2hosyxNgjQ4w6yzEO4N0ZYnSjHAXABs3+YccXAMC+ku6RdLrqNaCvXbaUdBFwC7BL6cbYfH0rU5yjMsWx5BpJU1uM8R5gZI7G1FSOAmCrDDG60aNqfdXKej0BADYBrld6POe1ohdsG0nXktYVWLt0Y+ztIuIWSddmCPU+YMMMcUyvj7S+qcUwwyTtlKE5dXW/Wi+i/ASgiYiYIenxFsPUpwAgzQm9XdJ7S7elhg6WNIo0N3fh0o2xt/lxhhgh6V8yxLE35CjMenZ74MbGQK3uXrelx7f0qdXXAPUoAIDdJZ2ptAa6Dc4ISd+WdDfg/bY7y2WSRmWI80lgiQxxLLkmQ4xW9xWou1b3r19UfbyrtpYLgLVoMlW1owoA0hznX0laqHRbusRGkv5GWhHRBVUHaIw6/0mGUCMlHZ4hjiV3qfW97Tejt1drbLUAkPy6ty+tFgDDlKaTv0lHFQBKNzQP9MtriNKKiHcB7yrdGJOUZrK8kCHOZzPEML3+CLvVtRqGqLe3B85RAGyeIUY3qmQmQKcVAAeXbkAX21DSzcCXvXZAWRExXXm2P90M8JTYfK7LEKOXX7mNkjS9xRguAJp7WBItxnjbwOFO23CmU7bVRNLYxmd04+c4SXMkvaI3T8lYXOnd1bKNz0qS1lLr+8BXYWGlx8/bAUdExJTSDephJ0n6hqTFWoxzuPJ887I84wB6duByRMwEHpTUypNGFwBNRMQU4FlJrew8+baBgB31TRCY9f/bu/doy+vyvuPv5zBcHWBGEJRbwGATURGVSAkqWZIUtFFBolYTEjVJEySWkFpW6lpJiKvLW1MrGGyKUWMbIiGBKipg1XoXF0YNREgNxRkCw30G5DIjDjOf/vHbBw7DmQvnefb+/vb+fV5rnQUD83v297t/55zfs7+X5wtMehXofcA36GoNXEc31PKPEbE+E1TScuBwujmt59D9ULyQruJVH1wPvDoivt+6IUMl6SPAm5Jh7gQOioiNBU0atFEp2jvIJe8PAStGWwsHR9KfA7+eCQGsjIit1q8fKklXAicmQnw9Ivo7QiXp3uShBzviAUmXSjpD0nMnue1E3fnwz5N0pqQrJK2fQH+3ZZ2koa9cbkbSsUX30ZUgi0i6pOB+9PeX7Jip+73q928MJJ2ffF/v2jJm39YAZPeRbs1ddEOuLwf2jYhXR8T5EXFNRGwa02s+TkRsiojvRsS5EfEyuimDk4FLyM+dLcVK4Ep1ZZZtwiLiKuCaglCnFcSwzpcKYgz5sK6/L4jhaYDFrUpev6+kJy/8D31LAD5RGGsj3VnfpwAHRsRbIuKKPg3NRcSGiPhkRPwS8DS64i7fmHAzdgH+QtLbJ/y61vloQYxXSdqnII7VrAMY8tn2FTUujiiIMYuyCQB069P6SdJySXdkhzkkvUPS/q37s1SSnqFu7/6kpwje1brvQ6PuLPUNBffut1v3ZRZICkl3J+/FD1r3oyVJa5Lv3+da96GPJD0/+b5K0smt+7FNkl4hafMSOnajpLeoKyY0EyTtL+m9ku4ruPE76gPyNsGJknRhwX2rOGnQ6BZbFdyP/Vr3oxVJn0u+dze37kMfqfuwkPXvFsbs2xQAEfEp4LeBHZ2bvxN4K/DMiPhgdvV+n0TEHRFxNt2wzR8D907gZX8HOHcCr2OP+lBBjOO1xfyeLdnfFcTwNMDSHahuF5UtEBHrgOzuiIMX/qF3CQBARFxAV1f7H7bx19YC5wA/GRF/OjoxaSZFxLqIOIeuktNfkC8IsT1vlacDJunLwE3JGMsA7waoUZEAvLAgxrS6Lnl94DMBtia7DuAxlXZ7mQAARMRX6QoDvQR4J3AR8DfA+cAvAwdHxB8PqZhNRNwVEW+ie0+uHfPL/b68MHAiRucD/G1BqFMKYlhNAjDks+0rFgL6uOvFrU5enykkZH0haZm6egI/LJgX2prN8hbBiZD0MwX3a72kbGVBAyTdmrwXg53HlrQy/62sc1r3o48kvS/5vq5ZGK+3IwC2bRHxcEScCzyPmk8si74M8CFJPzem+DYSEd8C/l8yzO7ASQXNsfzP1EGS+lgOfOwi4h7yh115BGBx2SmAp0radf4PTgCmXET8ADgOOI/xrA3YBbhUkufkxs/TAP3x7YIYQy5oc0Pyev++WVw2AZgDDlr4B5tyEfHjiDiT7pf/PWN4iZXAZZL2GkNse9TFBTH+taS+HfI1jb5VEKMvh5u1kB3NenpJK2bP6oIYj+wEcAIwQyLik3SLjyrKy27pp+imA1wjYEwi4rt0x35mrACOLmjO0DkByMkmAHvL21oXU1EN8JGdAE4AZkxErAKOp9taVu21wJljiGuPqiiH/QsFMQYtIu4C/jkZZsgJwI0FMQ4riDFTIuJB8vVgHtkJ4ARgBo2O0jyRbttktXdLOmoMca1zRUGMEwpiWH4U4Kc1wdNGeyY7AgBOALYmu8DSUwCzLiIeAl4P/Flx6F2BCyXtXhzXOleRr/Z1rLwdsEJ2Km03tii8MiDZRYDgdQBbc1vyeo8ADMHo+OHTgfcUhz5iDDENiIiNwBeSYXahKxZlOd8viPHMghhTJyLuozuGPcMJwOKyCcCB8/+ypARA3al9p0v6gqS1owID947+fIY/ffRLRPw+cEFx2DMkHVcc0zqeBugHJwA52WkATwEsLpsALP2gKkkvk3TzdqoN3SbJBUl6RNJOki5NVpHa0nVaUFTCakg6SEs7EXOhv2/dj2knaXdJm5L34cOt+9GKpI8n37t/at2HPpL075Pv68OS5uAJjgBIOg24jAWFBLbiqcDlchnZ3oiITcAbqN0dcATwHwvjGRARt7Dtg7B2xJGS9qloz1BFxAbyhzQNeQQgu4viwO3/lUHKLgLcCdgHnkACoG7l94foTh3bEQF8WNKQj8XslYj4EfAqausEnC3p0MJ41rkyeX0Ax1Q0ZOCy0wBDrmiXPQ9hD0krS1oyW7JTAABPgR1MANQVf/kQ3QrwJ2IZ8MEneI2N0WiL4Cnk95LO2x14b1Ese9RXCmI4AcjLFmbaR9KKkpZMn4oDkTwK8HiTTQCA17D06mJHexSgX0bFgt5M3dkBr5HkVee1vgFsTsZwApBXsRBwqKvZs1MA4ARgMRUJwH6wAwmApJ2B/5R8sROT11uxiPhfwAcKQ767MNbgjU5U+8dkmGPk0s1ZTgCWziMAYxAR9wIbkmF2eATgN4BnJF9syPNgffYfqKl5Dl3xmZcXxbLO15PXr8A/e1nZKQCAnyyIMXUi4m5gfTLM9hacD1V2FGD7CYC6am9/mHwh6BYkWc9ExI+BfwPcXxTyHf7EWSqbAICnAVIi4jby62WGOgIA+VGAA0paMXuyOwF2aArg1+i29GXdURDDxiAifgCcUxTuBcAvFsUyJwB9kd2PPsgRgJE1yes9BbC4tcnrtz0CMCoUcFbyReZ9rSiOjcd55Pedz3tbUZzBi4gbyQ/1vaCiLQOXrWt/8Pb/ysy6M3n9/iWtmD33JK/f7hTAq6iZP7yD/J5mG6OIeBg4nZpdAS+R9C8L4ljnm8nrj/C0TFp2NfuQ57Gzo79PKWnF7MlOS213CuD3ki8w709GBWisxyLi68DHisJVjRwZXJu8fk+G/Qm0QkVBm6FWZXQCMB7jGwGQ9DzgRckXgO4H5/yCODYZZ1NTIOgUSRVrR6xmauZZBTGGrGI/+1BHAbJTAE+StEdJS2ZLNgHYR9JOWxsBeFMy+Lw/GtXTtikQEXdRUxtgZ7oFpJaXHQEAJwBZTgCWrmIBuEcBHi/7QW0OeNLjEgBJuwCvTwYHuB74HwVxbLLOBR4oiPMbnnsucSPwYDKGE4Cc7IFAMNxpmOwIADgBWEx2BABgr8VGAF4B7FsQ/D2jE+hsikTEWuC/FYQ6HHhxQZxBi4jNwHXJME4AEiLiPuC+ZJih7mevGAFY+vn1s6siAdhzsQSgYuh2DXBRQRxr433kS00CvK4ghuWnAZ7p0Zi0ksIrA+QRgPGoTwAk7U1N3f7zRlXmbApFxO3AhwtCnSppp4I4Q5ddCLic4Q5BV8kmAIN8iI3WgGV3gT25oi0zpmKx9vItRwBOBHZJBn0QuCAZw9o7j3xdgP2Bn8s3ZfAq6tH/REGMIcsOZQ91BADyD6u9S1oxW8YyBfDKgqCXjE4rsikWETeQL0IDNd9TQ7e6IMYhBTGGzFMAS5d9HuxV0ooZEhEPAg8lwzw6AjAaqj0pGRDqislYexW7OF5WEGPobgI2J2M4AcjxCMDSZT+tegRgcT9MXv+YXQA/C2SrVa0GvpSMYf1xMfks8xmShnwYSlpEPATcmgzjBCAnOwKw92iL9RB5CmA8stuDH7MG4IRkMICLRtuWbAZExDrgMwWhKkaWhm518nonADnrktcHsLKiIVPICcB4ZHdq7bnlCEDWpwpiWL/8z4IYrgeQtyp5vROAnIpFVysKYkwjJwDjUZMASFoGZE9wu5OaRWPWL58l/41Wca7E0K1OXu9dADnZEQAYbgLgNQDjkf29/MgUwHPpTg3LuNzD/7NntI/3K8kwB0ryAygnOwKwp6ShPoAqVCQAQ32Q3Z+83rsAFpdNAB5ZBHhctiXA5wpiWD9dWRDj2IIYQ5ZdBAg1Jb6HylMAS5d9UPk0wMWVjQAclW0J8LWCGNZP2REAgCMLYgzZ2oIYrqi2RKN919nqpkNNANYnr9+9pBWzJ5sAPHIa4BHJQDdFRMWRmdZP15AfxntORUMG7O6CGE4AcrI/A0OdAsg+qHYerVOzx0q/r3OjQ0KemQz09eT11mOjUx2vTobxCECORwDay36SHepQdvZ9A48CLCabACybAw4iv8jiO8nrrf++m7z+YEnLS1oyQBFxP/miTE4Ach5IXj/Uh5gTgPHIjwCQ//QPcH1BDOu37Il0ARxa0I4hy44CZCt9Dl228tpQH2IVCcBuBTFmTckIwKEFDXECMPuyCQDAYQUxhiybAAy1El2V7AiApwCWbqjJ07akE4BlwNOSQR4AvABw9t1YEMMJQE52IeAhkp5e0pJhyh6PPdQEIPugAjhc0saCOLMk+/20c0UCcFNEZH8wrOci4j5Ja8kNIx9Y1Z6Byn4CPWX0ZW0MdRj74YIYny6IYY+1bI58AlBRoMSmw+rk9Z6DzskuArS2hjqMval1A2xRy+aAA5JBbqtoiU2F7JGoTgBysoVorK2dWjegEScA/bRsjnxxCo8ADEd2DtqlaHM8AjDdnABYnyybIz8vlT3q0aZHdhV69sCpoXMCMN2GmgBUrAGwejvPkZ+X+lFFS2wqZPdB71rSiuHyFMB0G2o5W48A9FPJCIATgOHIfgLdpaQVw+URgOnmEQDrEycA9oRkP4F6BCDHCcB0G2oC4BGAflo2R1eiNWNzRUtsKmTrPWS/14buh60bYCkVBXGm0YP4OdFHG+bIf6rzsO5wZO+1P8Hm3NK6AZZyc+sGtBARG8lvIbZ6NzsBsCciO4TvBCDn/+BPUtPs860b0NAXWjfAHufzc+R/KT+poiU2FbL32qvYEyLiTuDy1u2wJVkHfLJ1Ixr6aOsG2GMI+Ngc+friru42HNl7fX9JK4bt7XgkZRq9IyIGWzMlIr6I6/n3yYUR8e058sVdXN1tOLL3Ovu9NngR8Q/Ab5FfkGmT89fAea0b0QO/BtzQuhHGtcDpAHPky7vun26OTYv9ktc7ASgQER8DXotHVPpOwPuBX/GJqRAR64DjgC81bsqQfQY4PiIegC4ByP5S/ol0k2xaHJa8Ppts2khE/C1wOPA+Brq6vMfuBy4GfiYizooIF8IZiYi7gJcCrwO+jGsETMJGugWor4yIX1w4FRWS3gOcnQh+f0TslW2h9Zuk5eQ/cZ4VEe+vaI89lqQD6Ebj5lq3ZeDuAW4ebX2z7Rj9XjmE4R6VPG7rgZsiYv1i/3MZ+TPe95S032iFss2upxfEWFUQwxYREbfikzltyoyGoq9v3Y6hmiOfAAA8uyCG9duRBTGcAJiZ9URVAlDxcLB+q0jyVhfEMDOzAnPAjeQLtDy3oC3Wb0clr18TEfeVtMTMzNLmIuLHwP9NxvnZisZYP0maA45Jhrm2oi1mZlZjfsVw9pfzMyRl94hbfz0bWJGM4QTAzKxHqhKAAF6UjGH99eKCGN8riGFmZkXmE4BvFsQ6sSCG9dNJBTGuKohhZmZFAkDS7sC95I72vSUiDi5plfWGpF3pKvgtT4S5IyKeWtQkMzMrMAcQERuA7yRjHSQpu1Lc+uel5B7+AF+raIiZmdVZWDb0qwXxTiuIYf3yKwUxKr63zMxsHCSdoLzbJS1r3RerIWkvSQ8WfF/8dOu+mJnZY205ApA97GV/4OeTMaw/fgnYIxljdURk60yYmVmxRxKAUUGgLxbE9DTA7Ki4l1cUxDAzs2JbHh36qYKYJ0vy8cBTTtIhwEsKQn26IIaZmRXbMgG4hPy5AHsAb07GsPbOIH+2/D3A5wvaYmZm4ybp8oJFX7dK2q11X2xpJD1Z0n0F3wcXtO6LmZktbrFPeH9dEPdpwBsL4lgbZwJ7FsS5uCCGmZmNQWz5HyQtB9YA2Xn8fwYOj4iNyTg2QerWb6wGViZD3QwcFhGb0o0yM7NyjxsBiIgHgIsKYh8CvL4gjk3WGeQf/gAf9sPfzGzKSDq6YP5Xkv5JUuZ8AZsgSSsk3Vlw3x+W5HMhzMymkaRvFTwIJOntrftiO0bSB4ru+WWt+2JmZksk6fVFD4P1kg5r3R/bNknPV/fJvUJF/QAzM2tB0k6Sbix6IHyidX9s6yTNSbqq6F5f3bo/ZmaWJOmsooeCJL2idX9scZL+beF9fk3r/piZWZKkPSTdVvRgWCWXCO4dSQdIurvoHn9PUrZ6oJmZ9YGk3y16OEiSC8P0iLqh/88X3t9TW/fJzMyKSNpN0s2FD4nTW/fJOpLeUXhfr5U//ZuZzRZJv174oNgg6Xmt+zR0kn5e0qbC+3pi6z6ZmVkxdUPFVXUBJOkGeT1AM5L2V3dgU5WKY6TNzKyPJL1Y0ubCh8Zlkpa17tfQSNpd0tcK7+NDkv5F636ZmdkYSfqrwgeHJP25pMcdSGTjIWmZusSr0ntb98vMzMZM0r6qqRW/0Dtb92sIJIW6hKvSKnWnR5qZ2ayT9Mbih4gkndW6X7NO0rvHcN/+Vet+mZnZhKj7JPnZ4gfJJkm/2rpvs0rS24rvlyR9tHW/zMxswlRbPW7eZklva923WaIuWTun+D5J0g/kXRxmZsMk6eQxPFgk6Vx5YWCausOc/vsY7s9GSce27p+ZmTU0pgeM1C1W8xbBJVK31e8TY7o3f9C6f2Zm1pi6MsF/N6YHzSflYeYnTNJ+kr46pntyuVzu18zMACQdovqtgfNWSTqmdR+nhaTjJa0Z071YLWmf1n00M7MeUVdXfuOYHjwbJL2ldR/7TF2p5j+Q9PCY7sEDko5q3U8zM+sh1R4YtJhLJa1o3c++kfQUSVeM8X3fJOnk1v00M7Me03iKzSy0StIrW/ezD9Rt8ftVSXeM+T3/ndZ9NTOznhs9lC4c8wNJ6urZH9a6v61IerakL0/gff7PrftqZmZTQt3+84sn8HBar67Iza6t+zwpkvYY9fmhCby/H5HrMZiZ2RMhaVfVlwvemhvUnU+wc+t+j4u6ff1vlXTLhN7Tv5S3+5mZ2VKo+7Q6qSRA6tYHnC5pt9Z9ryJpT0lnS7p9gu/jhXIRJjMzy1A3EjCuinRbs0bS70nau3X/l0rdsct/KGnthN+7C+RP/mZmVkHSMk1mYeCW1kv6uKSXawo+0apLlk5VVwHxxw3er/8iz/mbmVkldbsD3tXgoTbvdkn/VdLzW78XC6kr4HOcpD+TtK7Re7NJ0pmt3wszM5usiX7ik/SbwAeBlp/I1wBXjr6+GhF3TPLFJR0EHA+cBJwIPGWSr7+F9cAvR8QnGrbBzMwamPiQr6QTgIuAfSf92ltxA3AVcA1wLfC9iLi9IrCkg4FnAUcCRwHHAYdUxC5wE3BqRHy7dUPMzGzymsz5SjoEuAQ4usXr74AHgdXAKuBOYC1wN3Dv6P//iO6923X0z5V0Cc0+wP7AocBhQF93JHwOeENE3N26IWZm1kazRV/qtuu9H/itVm0YoE3Au4BzImJT68aYmVk7zVd9SzoJ+Cjw1NZtmXE3A6dFxJdbN8TMzNprvuc7Iq4EXgB8tnVbZtjHgSP98Dczs3nNEwCAiLg1Ik4CXks31241bqNb6PeGiLh3u3/bzMwGoxcJwLyI+Bu6VfN/Bahxc6bZJuBPgZ+KiEtbN8bMzPqn+RqArZH0QrpFgse2bsuU+SJwVkRc07ohZmbWX70aAVgoIq4GXgS8mW4Bm23b9+mG+1/qh7+ZmW1Pb0cAFpK0C/BG4I+AA9q2pnduAt4JfCQiHm7dGDMzmw5TkQDMk7QH8JvA79IV2xmy64E/Af4yIja2boyZmU2XqUoA5qk73e9U4G30t5rguHyJ7sF/eUR4oaSZmS3JVCYAC0l6FnAa3cjAkxs3Z1zuBS4Gzo+Ia1s3xszMpt/UJwDzJD0JeDXwOuAXgF3atihtA/AZuoOTPh0RDzVuj5mZzZCZSQAWkrQSOAV4BXACsGfbFu2wdcD/Bi4DPhURDzRuj5mZzaiZTAAWGu0gOA44kW5b4dF0p/j1wYPA1cBX6EohX+1DeszMbBJmPgHY0ugUwqOBY4AjgecARzD+pGA9cB1w7ejrm8B3vHXPzMxaGFwCsJjRroLDFnwdSldvYB9g39E/VwA7ATsDy0eX3g88PPq6B1i74OsWYNXoazWwOiI2T6I/ZmZm2/P/AVzepHwHC9GXAAAAAElFTkSuQmCC;" vertex="1" parent="1">
          <mxGeometry x="860" y="70" width="20" height="20" as="geometry" />
        </mxCell>
        <mxCell id="WAwGREqBWpnCd0pNxmOx-120" value="" style="shape=image;aspect=fixed;image=data:image/png,iVBORw0KGgoAAAANSUhEUgAAAgAAAAIACAYAAAD0eNT6AAAABHNCSVQICAgIfAhkiAAAAAlwSFlzAAAOxAAADsQBlSsOGwAAABl0RVh0U29mdHdhcmUAd3d3Lmlua3NjYXBlLm9yZ5vuPBoAACAASURBVHic7N13eFzVgTbw994pGvXeJUuWbbnJ3Rhj44qJTQkkAUMA0xJ6SSHZDcluEm3al93NJpvQHAOh2JhiQgkldBfcwL1bXVbvvUy99/vDmDWuKjNz7p3z/p4nT0CWZl6smXvfOffccxRI4uZ7tqRAcY3XVEuuoiMXijYSipoEHUmAnggg8YtvjQAQJjAqERH5nwtAnwLouo5WAK1QlVZd15sVXakEUKEpqAxTlSPPPDK/WWzU4FBEBwiEm+/ZkqJb3XOgK3N0HdMUBZMApIrORUREptAA4ICuY4+uaFstvrBtq1fObRIdyt9CogDc/OP3I7V++yJFUS6DhkuhYIzoTEREFFKKdOgfKZr+zwhfzPpVq2b2iQ40XKYtAMvv+jA2zGq/Giqug64vAYftiYgoOJwK8BGAVzTV8eYLj8zuEh1oKExVAAoLdbWkZeNSAHcoOq4AT/pERCSWE8DbiqI9NSpp0YeFhYomOtBAmaIA3HDX+iSrDffoUO4EMEJ0HiIiojM4pivKkxbds/L5x5a0ig5zPoYuALfc/2m+Bu9DgHILgHDReYiIiAagD8Bz0PU/rnl8UanoMGdjyAJw2z3rc70W5acAvgPAKjoPERHREGgA/q5ZlH9b+5cFJaLDnMpQBeC2+9aneRXl1wBuA0/8REQUGjyA/jfFZ/+FkW4nNEQBWF54yB7W0nIvdP1XAGJE5yEiIgqAXij6H6w9+P2zzy5yig4jvADceN+GRaqCVQBGi85CREQUBEUalLvWPrZgk8gQwgrAbT9YH+f1KP8N4LsicxAREQmgA/oql8f7k3WrLu0UEUDIiXfFfRvnQNFXA8gT8fxEREQGUaVo2i2rn1i8MdhPHNQCcNddO2291p7fKAp+DEAN5nMTEREZlA/Af9Yk67/cULjIG6wnDVoBuPmeLSmweF7SgUXBek4iIiIT2QyPet2aVfPrg/FkQSkAt9y3/mJNVV6BjvRgPB8REZFJ1UFXlq95fMHWQD9RwIfhb3pg4/WaonzIkz8REdF5ZUDR19/0wPoVgX6iABYAXVnxwPpCRddfBOAI3PMQERGFFLuiK8+veGB9IaAHbKQ+IA9cWKirZS0bV+o67gzE4xMREclA15WVY1Lm3x+IXQb9XgCWL3/FEpaS/DSg3OrvxyYiIpKNAqytTtZv9fcdAn4tAAsL11uzmpUXAVzrz8clIiKS3DpXU9MN69Zd5/PXA/ptDkBhoa5mNSnPgCd/IiIif1tuT0l5prBQ99t5208PpCtlLRtXQkHAZy0SERHJSAFuLm3e+Ki/Hs8vBWDFAxt+yQl/REREAXfvTQ9s/Dd/PNCw5wDcfP/6b+tQ1vrjsYiIiOi8dAW4dfVjC1cP50GGddK+5b71F2uK8jEA+3Aeh4iIiAbFpQKLnn9s4bahPsCQC8Bt961P8yrKLgAZQ30MIiIiGrIGr2Kd8dKjF9cN5YeHNAfgrrt22rxQXgFP/kRERKKkWXXvuuWFh4Y0Cj+kAtBr7fkNFMwbys8SERGR38xxNDX9Yig/OOhLACse3DAPGtYDsAzlCYmIiMivNE3HkrWPL1w/mB8aVAG47Qfr43weZb8OZA8uGxEREQVQlcvjmbxu1aWdA/2BQV0C8LrxB578iYiIDGdEmM36n4P5gQGPANx87ycLdFVdP5ifISIioqDRFUVZsvrRBZ8M5JsHNALw4IPvhumq+hR48iciIjIqRdf1JwZ6V8CACkCHFvEQgNHDikVERESBlh/W3Pz9gXzjeT/R3/D9j1ItXmsxgJhhxyIiIqJA67bqev6zjy9qONc3nXcEwOK1/gY8+RMREZlFtFdB4fm+6ZwjACvuWz8ainIEgNVfqYiIiCjgPJpmGbf2iXnlZ/uG84wAKL8ET/5ERERmY1NV37+f6xvOOgJwy/2f5mvwHQZX/CMiIjIjr0X1jXvukUvKzvSHZx0B0OD7EXjyJyIiMiurV1N/eLY/POMIwO0Pbkr2aNoxAOEBi0VERESB1ufz6DkvrlrUcuofnHEEwKv57gZP/kRERGYXodrVu8/0B6cVgMJCXdWh3BH4TERERBRoqq7fvXz5K6dd0j+tAJS0bFwKICcoqYiIiCigdCDbnpx6yalfP9MlAH76JyIiCiGKop92bv/KJMCbHtweo2jORgCOoKUiIiKiQHPqqiP1hUdmd534wldHADTXN8GTPxERUahxKD7X10/+wlcKgAL9uuDmISIioqBQvnqO//ISwM0/fj9S7w9rBRAW9FBEREQUaM4IT1TiqlUz+4CTRwD6whaDJ38iIqJQ5ei19yw48S9fFgBdxTIxeYiIiCgYFE1feuKf/28EQMOlQtIQERFRcCjK1778RwC4+Z4tKbrF0yguEREREQWBblPV1Gcemd+sAoBm8cwVnYiIiIgCTvH6tNnAF5cAFOAisXmIiIgoGHRFnwt8UQB0HdPExiEiIqJg0KFOBU6MACiYLDYOERERBYOi6JMBQLnh+x+lWrzWBtGBiIiIKDhsqpqiWt3qONFBiIiIKHh8Pt9YFYoyUnQQIiIiCh6filxVV5ErOggREREFj6IpI1VdV3JEByEiIqLgURTkqoqOVNFBiIiIKKhSVEVBougUREREFDwakKjqQJLoIERERBQ8io4kFUCM6CBEREQURApiVQB20TmIiIgoqOwqgDDRKYiIiCiowlQANtEpiIiIKKjCVHyxIRARERFJQ+XJn4iISEIsAERERBJiASAiIpIQCwAREZGEWACIiIgkxAJAREQkIRYAIiIiCbEAEBERSYgFgIiISEIsAERERBJiASAiIpIQCwAREZGEWACIiIgkxAJAREQkIRYAIiIiCbEAEBERSYgFgIiISEIsAERERBJiASAiIpIQCwAREZGEWACIiIgkxAJAREQkIRYAIiIiCbEAEBERSYgFgIiISEIsAERERBJiASAiIpIQCwAREZGEWACIiIgkxAJAREQkIRYAIiIiCVlFByAi/wuzWxAVaYXNqiI8/Pjb3GpVYLdZjv95mAVWiwIA8Pp0uFw+AIDb44PXqwMA+vu98Hg19PR64XL7BPxXEFEgsQAQmYTVoiAxwYGkBAeSEx1IjA9DTLQN0VE2REX+3/+iI62wWv07uOfxaOjp9aCnz3v8/3s96O7xoLPbg9Y2J1raXGhpc6K1zQmvT/frcxNRYLAAEBmIRVWQmhKO7IxIZKVHIiUpHEmJYUhOcCAuNgyKIiaXzaYiPi4M8XFh5/w+XQc6Ol1obnWiuc2JphYnaup6UVPXi8bmfvg0lgMio2ABIBIkNsaOnKwoZGdEHj/hZ0QiMy3C75/eg0lR8GVRyB8V+5U/83g01Db0oaauF9V1vaiu68Gxmh50dXsEpSWSGwsAURCoqoL01AiMHBGF/LxY5I+KRUZqhLBP9CLYbCpys6OQmx31la93dLpRXN6J4rJOVFT3oKyyCz5eRiAKOGXF/Rv4TiPyM6tVxdhRsRg3+vjJPi8nGo4wi+hYpuB0+lBa2YWSii4cKe5AcXknCwFRALAAEPlJSpIDE8fGo2BcPCaNT0C4gyd8f3C7NZRUdOLg0XbsOdCK2oY+0ZGIQgILANEQ2WwqCsbFY/L4BEyeEI+UpHDRkaTQ0NyPA4fbsO9QGw4Vd8Dr1URHIjIlFgCiQThx0r9wWjKmT07ip3zB3G4Nh4rb8fmeZny+pxluN8sA0UCxABCdB0/65nByGdixp4WLFxGdBwsA0RkoCpCfF4sFc9JxwdQkTuAzmX6nD5/vacbGbfUoKe8SHYfIkFgAiE4SG2PH7OnJWDAnHdkZkaLjkB/UN/Zh0/YGbNrewDUHiE7CAkDSUxRgQn48Fl+cjhmTk2CxSHRzvkQ0TceRkg58srkeu/a1cFVCkh4XAiJpORwWLJidhmWLs5CU4BAdhwJMVRVMHBuPiWPj0dLqxMeb67B+Sz16+7yioxEJwREAkk5yogOLL87A4ovTERHODiwzp9OHTdsb8M/1NWhpdYqOQxRULAAkjZEjorF0YSZmz0yBReUwP/0fXQf2HmrF2x9Uo7i8U3QcoqDgxx8KeVMmJOCbl+dgVG6M6ChkUIoCTCtIxLSCRBSXdeK1d4/hUFG76FhEAcURAApZ+aNisfzKXIwbEyc6CplQSXkX3vqwCnsOtIqOQhQQLAAUcvJHxeLaK3Mxnid+8oPi8k689g5HBCj0sABQyBg/Jg7Xfj0X+Xmx5/9mokE6UtKBdW9VcGEhChksAGR6acnhWH7VSMyaliw6Cklgz8FWrHm1FE0tvGuAzI2TAMm0IiOsuPLSEVi2KBNWqyo6DkliWkEiJo1PwCef1uHv71Sir5/rCJA5cQSATMeiKph/URquvXIkYqJtouOQxHp6PXjjn8fw0aY6rixIpsMCQKYycWw8br1uNNJTI0RHIfpSdV0vnnu5BEVlXEOAzIMFgEwhMsKK66/Ow8I56VC4hg8ZkK4DW3c04oXXytDdw02HyPg4B4AMb9a0ZNx2/RhER3G4n4xLUYC5s1JRMD4eL71Rjs2fNYqORHROHAEgw0pJCsft3x6DgnHxoqMQDdrh4g4881IxGpr6RUchOiMWADIcVVVwxZJsfPOyHNhsnN1P5uV2a3j17Qq8t74GOo+0ZDC8BECGkpTowN03j8O40VzMh8zPbldx47dG4YKpyVj5/BGuHUCGwhEAMoyLL0zFrcvHwOGwiI5C5Hf9Th9efL0M67fUi45CBIAjAGQA0VE2fPfGfMyYnCQ6ClHAhDss+M4N+SgYF49nXipBTy/vFCCxWABIqKkFibjjpnzERttFRyEKilnTkjF6ZAxWrS7iBkMkFGdYkRCqquBbl+fiobsLePIn6STEheEnD0zG9VfnQVW5sAWJwREACrroKBvuv308Jo7l7X0kL0UBrrw0G3k50Xj8mSPo7HaLjkSS4QgABVX+qFj89qczefIn+sKE/Dj86ifTMTo3RnQUkgwLAAXNornp+Nn3piA+lkP+RCdLiAvDvz80FVdemi06CkmElwAo4MLsFtx181jMmpYsOgqRYVlUBddfnYesjEg8vbYYHo8mOhKFOBYACqi4WDseursAI0dEi45CZApzL0hFWnI4/vTXQ5wXQAHFSwAUMNkZkSj88XSe/IkGaVRuDH7542nITI8UHYVCGAsABcSk8Qn4+UPTkBgfJjoKkSklJzpQ+KNpmFqQKDoKhSgWAPK7RXPT8aN7CxDOJX2JhsXhsOCHd03EkvkZoqNQCOIcAPIbRQFuWT6GBysiP1JVBbdeNwZJCQ68/GY5dxUkv+EIAPmFqiq4c8U4nvyJAuSKJdm4++ZxsHDlQPITjgDQsFmtKu6/fTxmTuFmPkSBNHdWKhwOCx575ghvE6Rh4wgADUuY3YIf3VPAkz9RkMyYnIQf3zsJjjDOsaHhYQGgIYuMsOLhByejYByX9SUKpgn5cXj4e1MQFcFBXBo6FgAaktgYO/79B1MxeiTXLycSYVRONB7+3hRER9lERyGTYgGgQYuOsuGnD05GVgYXKSESKScrCj99cAqiIlkCaPBYAGhQIsKt+Nf7J3OFMiKDyM6MxMMPTkYkLwfQILEA0IBFhFvxkwcmIzc7SnQUIjpJTlbU8YmBXHyLBoEFgAYkzG7BQ/cUIC+H6/oTGdHokTH4l/t4dwANHAsAnZfdruJH9xZg7KhY0VGI6Bzy82Lxg7smwmbjoZ3Oj68SOieLRcEP7izA+DFxoqMQ0QBMHBuP+28fD5UrBtJ5sADQWSkK8N0b8jFpPO/zJzKTGZOTcNv1Y0THIINjAaCz+tbluZg3O010DCIagkVz03HlpdmiY5CBsQDQGS24KA3fuCxHdAwiGobrrsrD3FmpomOQQbEA0GmmTEjA7Tfki45BRMOkKMCdN43FxLG8jEenYwGgrxg5IhoPfHcCtxwlChEWi4Lv3TGBi3fRaVgA6Eux0Xb84K6JvI+YKMREhFvx43sLuG8AfQULAAE4/inhge+MR0JcmOgoRBQASQkO3h5IX8ECQACAm68djXG8158opE0cG4/lXx8pOgYZBAsA4eILU3HJvAzRMYgoCK5Yko3Z05NFxyADYAGQXG52FG7/Nmf8E8lCUYA7bx7HTb2IBUBmsdF2/PDuAti5bjiRVOw2FQ9+dwK3EJYcj/ySUhTgjpvyOemPSFIpSeG448axomOQQKx/krpscTamFiSKjjEoTqcPB4va0dbuQme3G2F2C1RVgcWiID7WjsR4BzLSIviphvzO7dZQ29CL1jYXWjtc8Hg0aJqOfqcX0VE2xMeGYdzoWMSbrFDPnJqERXPTsX5LvegoJACPlBIaOSIay68y30zgjz6tw8tvlp/3+xLiwpCTHYX8vFjkj4pBXk4MrBbe+kQDV9fQh6KyThSVdaL8WDcam/uhafo5f2bmlCR8/86JQUroPyuuGY2isk7UNfSJjkJBxgIgGUeYBffdNt6UJ8TNnzcO6PvaOlxo63Bhz4FWAIDDYcGkcQmYVpCAqQWJXAyFTuP16ThS3IHdB1qw92AbWtqcg36MvQdb0dPrQVSkuV5fdruK+28fj8I/7IHHo4mOQ0HEAiCZW5aPRlpKuOgYg1ZR1Y3a+t4h/azT6cOOvc3YsbcZqqpg9MgYXDwrFRfNSIHDwVUPZVZR1Y0tnzdi264mdHV7hvVYXp+O7buasWS++W6pHZEZhW9fnYfVr5aKjkJBxAIgkdkzUky7ve/WHU1+eRxN01Fc1onisk688PcyzJ6RjEvmZWDkiGi/PD4ZX0+vBxu3NeCTzfVoaun362Nv/qzBlAUAAC5dkIkDR9ux92Cr6CgUJCwAkoiLteO268eIjjFkO/e1+P0xXW4fNm5rwMZtDRiVG4Ml8zIwe0YyrFbeHBOKKqt78NGmWmzb2QR3gIa6y6u60druQmK8uSYDAl/cGXRjPh7+zQ709HlFx6EgsEyedVuh6BAUeHebeOGP6tpevPVhVUCfo73DhV37W7B+Sz3cbg05WVGwcX2EkFBc3onnXinFi6+XobK6B77zTOYbrtTkcOTlmHNEyRFmQWxMGHbt93/hJuPhCIAELpyejJlTk0THGLK9h4I3JNnV7cFr71bi/Q01WDI/E0sXZnLSoAnp+vFJef/4oAqlFV1Bfe49B1tNexkAAOZdmIrtu5qw/3Cb6CgUYCwAIS4q0oZblpt36B8A9h4M/oGot8+LN987hvc31OCyRVm47JJshHPCoCkcLu7Ay2+Wo/xYt7Dnd7l9CLOb9/XynRvy8fBvd8Dp9ImOQgHESwAh7rs3jcXokTGiYwyZ261h9boSBHjU9qy8Xh1HSzu/XCgld0Q0LCa8hVIGNXW9eO6VUrz8ZjnaO93Ccmiajgn5cUhJMt/dNidEhFsR4bBi3yGOAoQyjgCEsKkFiZgzM0V0jGEpreyC1yfo7H+Snl4PXn6zHB9tqsW1V47E3FmpUNgDDKG13YWXXi/DZ3uaoYt/qQAAjpZ2YuLYeNExhuWSeRnYvqsJRWWdoqNQgLAAhChHmAW3f9vcQ/8ADHfwaW134a+rj+LjT+tw8/LRhpzsdXyJWh/6nV643Brcbh/6+o/P6na6fPCdpVCFO04srawizK4iMsKGMLuKMLvFkOsleDwa3vmoGm99WAW321gL2BSVGut1OxSKAnz3xnz87Hc7DVHCyf9YAELU1782IiQ2+gn2BK6BKq3sQuEfdmPehWm47qqRiI2xB/w5fT4dbR0utLa70NrmREu76/i+CF1udPd60NPjQVePBz29w1vQ5kysVhXRUTZER9oQE21DTJQNcV/sv5CYEHb8/+PDgjZhctf+Fqx9rQxNLYNfsS8Yyo51QdN0qKq5h4nSUyOwdFEW3vmoWnQUCgAWgBCUkhSOyy/JEh3DL6pre0RHOCtdBzZtb8COvc341hW5+NqCTL8c8Lt7PKiq7UF9Yz8amvrQ0NSPhuZ+tLQ6A34L29l4vRraO1xo73Cd8/vCHRakpUQgLSX8i/9FIDMtApnpkX5ZfrqpxYlnXy7BgSPGvjbtdmtoaO5HRmqE6CjD9o1lOdiyoxEdAudVUGCwAISgG7+VFxKL2fT0eYVO5hqofqcPL/y9DNt2NuGOG8ciOzNywD/b0uZEWWU3jtX0oKqmB1W1Pab4bz6bfqcPFVXdqKj66gx8i0VBRloERmRGYURmJPJGRCN3RDQcYQO7tKBpOj7YUIt1b1cYbrj/bGrqekOiADgcFlx3VR5WrT4qOgr5GQtAiJk0PgEzJpv3nv+T1Rj40/+ZlB/rxs//axcuvyQb37ws57SFhLxeDaWV3Sgp70RpZTfKKrvQ2WXek/1g+Hw6qmt7UV3biy1ffE1VFWSlR2L0yGiMyo3B2FGxSE0+feZ8dV0vnn6hCGWCbusbqqraXsyaliw6hl9cPCsVn3xah9JKY16So6FhAQghFouCFdeMEh3DbxoNen33XHw+HW99UIUde5px27fHwGZVcbi4A0dKOlBa0RWwJWjNSNN0VNUeH/X4ZPPx2ywT4sIwPj8O48fEIT8vBlt3NuGtD6rOOnHRyBqb/bvPgEiKAty8fDQK/7DbMHda0PCxAISQSxdkIiPN/EOOJ7S2m68AnNDQ3I/fP7JfdAzTaetwYcvnjdgywK2fjczMr98zycuJxvzZadi4rUF0FPIT818oJgDHF+64elmO6Bh+1dJ27glnREbWGoKv32uvHAm7naeNUMHfZIi4/JIsREWE1oBOR2foHUBJHh1d7pAbLo+LtWPJvEzRMchPWABCQHSUDUsXhsZtfyfr6eWWpGRexxdkCr3X8JWXcl+MUMECEAKu+toIQ67UNlwnVq8jMqvevtB7DUdH2bBsUeh94JARC4DJJcSF4ZJ55t169Fy4ExmZXSiOAADAssVZiIrkNtlmxwJgct84w/3moULUqndE/mLG2xcHIiLciiuWZIuOQcMUmmcOSaQkhWP+7DTRMQIn1GZQkXRC+SX8tQWZQdkDgwKHBcDErliSxb3piUgIu13F0oW8I8DMWABMKibahosvDOFP/wBs9tCb2EhysYfo5bkTlszPRER4aN1+LJPQfnWGsK8tyAz5g0sYFxwhkwsb4GZHZhXusGDBRaH9QSSU8QhrQmF2S8jO/D9ZZARnGZO5hUvw6XjpIl6KNCsWABNaMCdNiltwEuPDREcgGjJHmCXkVuc8k8T4MMyekSI6Bg0BC4DJqKoizcQbFgAyswSJXr9XLMmGwkEA02EBMJlZU5OQknT6numhSKYDKIUemQpsdkYkCsYliI5Bg8QCYDJLFsjx6R8AkuIdoiMQDVlSglyv30vmpYuOQIPEAmAiGWkRGDsqVnSMoElNkWOkg0KTLCN1J0wtSER8nDyjHqGABcBEFl8c+jP/T5aZFhGSmxyRHPJyokVHCCqLqvCWQJNhATAJu03F3FmpomMElaoqyM2W6yBKoUFRgNzsKNExgm7hnHSoKmcDmgULgEnMmp4sxS1Fpxol2acoCg1pKRFSrpCXGB+GSePjRcegAWIBMIlFc+WcYJMv0ZwHCh1jRsaIjiCMbJcqzYwFwAQy0yORnyfniXDi2LiQX/KYQs+UifLeEjdlYgInA5oEj6wmcLFk1/5PFma3YMJYDimSeVgsCgrGyfuatagKLuLKgKbAAmBwigLMnp4sOoZQM6ckiY5ANGDjRsdJef3/ZLNnyH3MMgsWAIMblRuDpES5FhQ51YXTkxHO2wHJJOZewE+/I0dEIy1ZrnUQzIgFwOC4ycbxywCZ6ZGiYxANSHamfLf/ncmFPHYZHguAgSkKMGsah9Jef7cSpRVdomMQDcgjTx9Cd49HdAzh5sxkATA6FgADGz8mDvGxdtExhPpsdzPeeO+Y6BhEA9bU4sSfnzwEr1cTHUWojLQIZGVw5M7IWAAMTPbh/+LyTqx8/ih0XXQSosEpKuvEX1cXSf/alX0Cs9GxABiUogAzJss7+72pxYn/XcVPUWRe23c14U3JR69mTmUBMDIWAIPKy4lBTLRNdAwhfJqOx585zOuoZHqvvVuJw8UdomMIk5kWIf1dTEbGAmBQUybIu5LYG/88hrJj3aJjEA2brgMrnz+Knj6v6CjCyHwsMzoWAIOSdSnRiqpuvPVBlegYRH7T3uHC39YWi44hDAuAcbEAGFB0lA0jR8i3C57breHxZ4/A55N85hSFnB17m7F1Z5PoGEJMGBsHG/fzMCT+VgxoysQEKBJuqf3iG2VoaOoXHYMoIJ57uQRtHS7RMYIuzG7BuNFybmZmdCwABjRlYqLoCEFXVduDTzbXi45BFDB9/V688maF6BhCTB7PywBGxAJgMIoCKXcSW/taOTSNQ/8U2rbubJRygutkSec0GR0LgMGMyIxCVIRcO4ntOdCKQ0XtomMQBZyuA2teLZVugaCM1AjExsi9qqkRsQAYTP4oua6V+TQdL/9DzmFRklNpRRd27G0WHSPoxuTFiI5Ap2ABMJgxI+V6k6zfXI/a+l7RMYiC6qU3yuGV7G6X/Dy5PtyYAQuAwcg0AqBpOv75SbXoGERB19zqxGe75LotUKZjm1mwABhIUqIDifFhomMEza79LWhqcYqOQSTEOx9XSzUXIDc7Co4wi+gYdBIWAAMZK9kQ2Xvra0VHIBKmurYXR0rk2SfAoirIy5FvgTMjYwEwkPxR8lz/r6zuQXFZp+gYREK990mN6AhBNZaXAQyFBcBARuXKUwBkO/ARncneQ62ob+wTHSNoOAJgLCwABmFRFWSmRYiOERROpw+fS3gbFNGpdB349LNG0TGCZkRWlOgIdBIWAIPISIuA1SrHr2P3wVZ4PJroGESGsH1XkzSTARPiwhAVaRMdg74gxxnHBLIzI0VHCJode/jpn+iE5lYnKqvlWR44O0OeY53RsQAYxIhMOYbGnC4f9h9uEx2DyFA+l6gUy/Rhx+hYAAxihCRvir0HW+Hm8D/RV3y2u1maywAcATAOL4+G0gAAIABJREFUFgCDyM6QYwRg1/5W0RGIDKe51Ynquh7RMYJCltFOM2ABMIDoKBviYuXYKYv3/hOd2dFSOd4bWemRUFVFdAwCC4AhpKfKcftfS5sTbR0u0TGIDKlEknJst6uIl+QDj9GxABhAcqJDdISgKK3oEh2ByLCKyuV5f8hyzDM6FgADSJHkzVDCAkB0Vu0dLrS0ybE5FguAMbAAGIAsb4YSiT7hEA1FsSTvkeTEcNERCCwAhiBDAdB1oKa+V3QMIkOrqpHjTgAZjnlmwAJgAMlJod+GOzpdXP6X6DyaW+W4BJDEAmAILACCWSyKFDNimyW5tkk0HLIUAI4AGAMLgGCJ8Q4p7oltaeXtf0Tn09TSLzpCUCTEhcFqCf3jntGxAAgmywJAza1yHNiIhqO3z4u+fq/oGAGnKEB0tBzHPiNjARBMlq0xZRnaJBquphY53itRkVbREaTHAiBYTJQcBaBXgk81RP4gwwgAAERL8uHHyFgABIuWpAB4vZJsdUY0TG63T3SEoJBl9NPIWAAEk2UYjLcAEg2MLNtly/Lhx8hYAASTZRjM65XjoEY0XLKUZY4AiMcCIJgsbwIWAKKBkWUEQJbRTyNjARBMmgLg4xwAooGQZQRAltFPI2MBECwsTI5fgcI1P4gGRJb3is0mx7HPyPgbEMxqleNXYLHI8d9JNFyyHBNskvx3Ghl/A4JZJTkxWrjsJ9GAyPJesVrl+O80MjnOPgYmy5uA634TDYwsBYCjguLxNyCYLMNgshzUiIZLlhOjLMc+I+NvQDBZTow2m0V0BCJTsEsyOU6W0U8jk+OVZmCytOCIcBYAooGICJfj/nhZ5j8ZGX8DgskyAhDhkOOgRjRcspRljgCIxwIgmCLJTb8RESwARAMhywiAzrXBhGMBEMznk2PVr3COABANiCwFwMfVQYVjARBMlm1yIzkCQHReFlWRpix7JfnwY2QsAIL5NDkKQFysXXQEIsOLjbFLsxQwRwDEYwEQTJY3QUJsmOgIRIYXHyfP+4QbhInHAiCYLMNg8XEcASA6H5neJ7LMfzIyFgDBZNn6MzLCxt2/iM4jXqKRMlmOfUbGI7Jgff1e0RGCQlGABImGN4mGIjFenvdIX79PdATpsQAIJksBAIC05HDREYgMLS1FnvdIb59HdATpsQAIJlMBSE+NEB2ByNDSU+R5j8h07DMqFgDBZBoGS0+V59MN0WCpqoKUJIfoGEEj07HPqFgABJOpBadJ9OmGaLCSEx2wSrI5GCDXsc+o5Hm1GZRMb4Ks9EjREYgMS7b3h0zHPqNiARCss8stOkLQxETbpJrlTDQYI3OiRUcIqg6Jjn1GxQIgWEenXG+CkSPkOsgRDVSeZO+N9g6X6AjSYwEQrE2yN0GuZAc5ooFQFGDkiCjRMYJG1zkCYAQsAILJNgIg26ccooFITnQgKtImOkbQ9PZ5uBKgAbAACNbV45ZmQyAAGJMXA4tFku3OiAZo/Jg40RGCqr1Drg8+RsUCIJhsQ2GOMAvyJJvsRHQ+4/MlKwCdcl36NCoWAANobXOKjhBUE/LjRUcgMpQJko0AtLSxABgBC4ABNDT3i44QVBMk+7RDdC4ZqRGIl2yjrMbmPtERCCwAhtAoWQEYOyoWkRFW0TGIDGFqQaLoCEHX0CTXMc+oWAAMQLY3g8WiYMqEBNExiAxh5pQk0RGCTrZRT6NiATAA2UYAAGCGhAc9olPFRtsxemSM6BhBpetAc6tc856MigXAABqa+qHLcycgAGDyhATYbHz5kdxmTEmEItldsa1tTq4BYBA8AhuAy+2TbkVAR5gF0yfJd+2T6GQXzUwVHSHo6ho5AdAoWAAMorq2R3SEoJs3O010BCJhkhMdGDsqVnSMoDtWI9+xzqhYAAziWG2v6AhBN3l8AncHJGktmJMu3fA/AFSxABgGC4BByPimUBRg7iz5hkCJVFXBxZK+9mX8sGNULAAGIWMBAIAl8zJg5d4AJJkLpiZJOfrlcvvQ0MQ5AEbBAmAQjS39cLp8omMEXXxcGGZNTxYdgyioli3KEh1BiKqaXunueDIyFgCD0HWgSsKJgIC8B0OSU/6oWOnu/T+BEwCNhQXAQEorukRHEGLkiGhMHMsNgkgOX780W3QEYUoqOkVHoJOwABhIcZmcBQAArrtqpJQzokku+XmxUq79f0JxubzHOCNiATCQ4vJOaa+P5eVEY9okLg9Moe2aK3NFRxCmvdONFi4BbCgsAAbS3eNBY4t8+wKccO2VuVBVDgNQaJo8IUHqrbBLyjn8bzQsAAZTIvEQWXZGJC6ZlyE6BpHfWS0KbrpmlOgYQsl8bDMqFgCDKS6TuyVfe2UuYqPtomMQ+dUVS7KRkRohOoZQxRwBMBwWAIM5VNQuOoJQEeFWfPsbeaJjEPlNcqIDVy3LER1DqJ4+LyqreQug0bAAGExzqxNNEs8DAICLL0zFNIlnSlPoUBTgzhVjYZd86+vDRe3QNElnOBuY3K9KgzpwRO5RAOD4QZOXAsjsLr8kG+PHyDvx74SDR3lMMyIWAANiAQCio2y47foxomMQDVl2ZiSulfi2v5PxmGZMLAAGdLi4HT4fh8tmTk3CssVcJpjMJyLciu/fMRFWKw+x9Y19aGnj/f9GxFenAfU7fSg7xltmAODb38jDOA6hkokoCnDvreOQmhwuOooh8NO/cbEAGNTu/a2iIxiCRVXwwHfGIynBIToK0YBce+VIqZf7PdXuAzyWGRULgEHt3NciOoJhxEbb8fCDkxEdZRMdheicFl+cjquWjhAdwzB6ej04WtIhOgadBQuAQTU296Omrld0DMNITQ7Hj+6dhDC7RXQUojOaNikRt17Hiasn23OgFT7e/mdYLAAGxlGArxqVE43v3TEBNsnvqSbjmVqQiAe/M4F7WZxiFy9lGhqPpAbGAnC6yRMS8MO7CqRfWIWMY8rEBHzvuyymp3K7NRw42iY6Bp0DX7EGdqymB83cPvM0k8bH46F7CuBw8HIAiTV7ejJ+cFcBT/5nsO9wK9xuTXQMOge+ag1u284m0REMaeLYePzyoWlIjA8THYUktXRhJu67fQKsFg77n8mWz3nsMjoWAIPbsqNRdATDysqIxM8fmobsjEjRUUgiFouCW68bgxXXjobCc/8Z9fR5se8Qr/8bHQuAwdU19KGiqlt0DMNKjA/Df/zLdMybnSY6CkkgJtqGf71/MpbMzxAdxdA+29UEL1czNTwWABPYuoNDaedis6m4a8VYrLh2NIdjKWAmjo3H7342ExPyuTLl+XDk0hxYAExg685G3ks7AEsXZuI3D89ATlaU6CgUQmw2FddfnYefPDCZO1QOQFNLP0oruJS5GbAAmEBXtwcHuZ72gGSmR+KXP5qGyy/JhoX3ZNMwjc6Nwa9/MgNXXprN6/0D9OlnjdD5ecUUrKID0MB8srkOUyYmiI5hCjabihu+mYe5s1LwzIslKK3kpxEanIhwK665IhdL5mdwcZ9B8Gk6Nm5rEB2DBogFwCT2HmpDa7uLt70NwojMKPziR9Owfksd/v5OJbq6PaIjkcFZVAUL5qTj2itzuffEEOze34L2DpfoGDRALAAmoWk6NmytxzVX5IqOYiqKAiy+OANzZqbirQ+r8N4nNXB7uDgJfZWiANMnJeG6q0ciIzVCdBzT+vjTetERaBBYAExkw9Z6fGNZDiyc6T5oDocFy78+EssWZeGjTXX4YEMNevq8omORYIpyfB3/byzLQV5OtOg4ptbU0o/DxZyrZCYsACbS0enG7gMtuGBqsugophUdZcM3L8/BZYuz8MmWery3voZDlhKy2VTMmZmCZYuykMWFpPzi40/rOPnPZFgATOaDjXVCC0Bbhws797aguq4XDc39cDq9cDp9iIu1IynRgZSkcIzOjcGYkTGGXqvf4bDg8kuy8LWFmdi6oxHvfVKDam6/HPKSEx1YMCcdi+em8xq/HzmdPk7+MyEWAJM5WtKB8mPdQR+u7Onz4qk1Rdh9oOWMLb+huR8o7fzy31VVwejcGMyekYxZ05MNe/+01aJg/uw0zJ+dhmM1Pfh0ewO27WrihMEQEhFuxYXTkzF3Viry82J5O18AbNhWj15eUjMdZcX9GzhoYzKzpyfj/u9MCOpzPvNSMT7ZPLQJPhZVwazpybhiSbYpFunxaTr2H27D5s8asedgKzycNGg6VouCSRMScPGsVEwrSORufQHk03T8uPBztLRx51Kz4QiACe3Y24LmVieSEx1Be87htHufpmPbziZs29mE6ZOTcMM385CWHO7HdP5lURVMK0jEtIJE9Dt9OHCkDfsPt2Hf4TZ0dLpFx6OzSIwPw+QJCZg8IQEFY+MNfQkqlHy2u5knf5NiATAhn6bjvfU1uPna0UF7zkVz0/HZ7uZhP87u/S3Yf6gVyxZn4VuX5xr+k1m4w4JZ05Ixa1oydB2oqu3BvkNt2HeoDWWVXVyiWSCHw4LRuTGYND4BUybEIzOdk/lEePejatERaIh4CcCkHGEW/OnXsxEVEbwO98Lfy/De+hq/PV5meiTuvXWcKS4LnInL7UPFsW6UVHShpKILpRVd6O7h3IFAUBQgPSUCo0bGfDnJNDM9gqv0CXaoqB2/f2S/6Bg0RCwAJnb10hG49usjg/Z8ug48vbbIr7N9bTYVt143BgsuCo3tfBua+1FW0YXqul5U1/Witr4Xre28zXAwIsKtyEyPQFZ6JDLSIpCdEYnc7GhEBrHs0sD8+k97UVzWef5vJEPiO8rE3t9Yi2WLsxAVGZzbmRQFuOOmsUhOdODv71T65Z5fj0fDUy8Uobq2BzddM9r0M7TTksNPm9/Q1+9FTX0vauv7UNfQh6aWfjS3OtHc6oTT5ROUVKyoCCuSEh1ITgxHcmIYkhPDkZocjsz0CCTEcblrMzhU1M6Tv8mxAJiY0+nDux/X4LqrgjcKAABXL8tB7ohoPLm6CJ3d/pkU9/6GWnR2uXHPreNDbqXDiHAr8vNikZ8Xe9qfdfd40NTqxNbPG/HBxloB6YIrMy0CDz84BXGxxrwtlAbutXeOiY5Aw2TsGVh0Xh9uqhVy3XnKhAT89mczMK0g0W+PuX13M/66+qhUq4lFR9mgazo2fSbHIiq1DX147NkjcDrlHPkIFQePtqO4nJ/+zc4yedZthaJD0NB5vTpUVcHEsfFBf25HmAUXzUzByOxolFR0oa9/+AuB1NT1oqPLjakFiaa/HDAQVbU9+P0j+9Ev0Qmxpc2JssouzLkgFaoMv+QQtPL5o2jj3BbTYwEIAceqezB/dpqw+57TUyMw78I0NDT1o66xb9iPV1ndA7dHQ8G44JeaYOru8eD//WW/3y6jmElzqxP9/V5MnpAgOgoN0p4DrXiHt/6FBBaAEODz6XC6fJg2yX/D8YNlt6mYPSMFFouKIyUdw368kvIupKccnwEeinyajj+uPIiq2h7RUYQpq+xGWnIEsjND83ccinyajj8/dYi3u4YIzgEIERu3NaC2XvxmNlcvHYE7bhoLix/uz356bTGqa8X/NwXCW+9X+aUomd3qdSXcd8FENmypR13D8Ef5yBhYAEKEpul48Y1y0TEAAPNnp+F7d04c9mx+l9uHx549Aq83tNbir6rtwZvvcQY1cHyTqbWvlYmOQQPQ7/ThtXcrRccgP2IBCCH7DrXhUFG76BgAgOmTEnHnirHDnshXW9+LN96r8k8oA9B14KkXiuH1SXSrw3ls2dHI0RATeOuDKo7WhBgWgBDz4uvl0AyyPv3cC1Jx4zdHDftx3v6wCsdqQuNa+badTaio6hYdw3Bef5cjIkbW0urE+35cBpyMgQUgxByr6Rnytr2BsGxxFi5bnDWsx/D5dPx19VHTf2r2ejWse7tCdAxDOlLSgZLyLtEx6CxWv1oKN7fFDjksACHolX+UG2rb2uu/kXfGVfAGo7q2F/8w+XXzzZ83oqWV26aezVsfhM6lnlCy/3Abdh9oFR2DAoAFIAT1O3145R/GmBAIABZVwX23jx/2ngX/eL/K1MPnMiz1Oxx7D7WyIBmM26PhuVdKRMegAGEBCFGbP29EkYE26kiMD8MdN+UPa1KgT9Px5JoiuNzmWzXvUFF7yN7S6C+6Dmzb1SQ6Bp3krQ+q0NTCUhaqWABClK4Dz71cAp+BrpvPmJyES+ZlDOsxqut68cSz5tsvYOsOntgGggXAOBqa+vH2h1zxL5SxAISw6rpevP2hsa6rXn9V3rC3e921vwUvv2mcSxzn4/Pp2L2/RXQMU6iu7TXEglay03XgyReKQm4NDvoqFoAQ98Z7VaipM84B1eGw4JbrRg/7cd75qBobthrnbodzOVLSgZ6+4W+UJIv9R4yxloXMPthYi2IDXUKkwGABCHFer4aVzx813KWASeOHv9HPMy+VmKIEcJGbwSkq5YlHpOZWJ159i7eryoAFQALHanrwz0+MtYjHDd8YBXWY+wVomo6/vVhs+J3J+ElqcIpKO0w3xyNU6Dqwak0RnC7zTbSlwWMBkMRr71b6Zatef8nOjMTFs1KH/Ti6Drz0RjleeqPckCcNTdNRfsy8ty6K0NPnRV2DcS5byeSjTbU4yhErabAASMLj0bDyOWOtpnf1shF+2TUQOD4n4D8f3Y/2DpdfHs9f2tpdXEFtCFiagq+2oQ8vGWRDMQoOFgCJVFR1G+raXkpSOOZckOK3xztU1I6Hf7sT23Ya51ayxpZ+0RFMqZH3ngeV16vh8WeOsKxKhgVAMu9+XG2YHQMB4KqlOcPeMfBkff1ePP7sEfxp1SHht5PV1vfi40+NP0nRiBqbjHO5SgYvvVGOqtrQ2HCLBs4qOgAFl64Df33+KH7705mIjhre0rz+kJYSjikTE7H3oH/XGt+9vwV7D7Zi7gUp+MZluUhJcvj18c/G6fLhs93N2LC1HqUV3NxmqDgCEDz7DrdxmWpJsQBIqL3TjafWFuMHd07066fvofragky/FwDg+AS8Tz9rxObPGzEhPx7zL0rDBVOSYLP5d+Crs8uN/YfbsHN/Kw4eaeMwqh808dJJUHR2ufHk6iJDTqClwGMBkNTu/S345yc1uPyS4W3V6w8F4+KRkRaBuobADPvq+vH5AYeK2vGsw4Jxo+MwPj8O40bHYkRmFCyWgbcgn09HTX0vjtX0oLK6B4eLO4RfaghFvX1eeL0arFZepQwUn6bj0b8dRme3cXYOpeBiAZDYK2+WI29EFMaNiROaQ1GABRel4cXXAz8Dud/pw56DrdjzxYiDRVWQmBCG1ORwJMSFIcxugd2uwmpV4fVq6Ov3wuXW0NruQkurE+0dLvg0flwKBqdbQxQLQMC8/EY5jnLRJamxAEjs+CeAI/j1T6Yjfpjr8w/XwjnpePO9KvT1B3fJXJ+mo6nFyR3PDMjl8iEqgoeoQNi5rwXvrTfW4mAUfKzXkuvsduMvTx8Wvj5ARLgVly7IFJqBjMXF1egCor6xD6tWm29HTfI/FgBCaUUXXnq9THQMXLY4CxHh/MRHx3E5Wv/r6/fiT6sOod/Jv1tiAaAvvL+hFuu3iL1nPTLCiiuWZAvNQMbh4Va0fuXTdPzlqcOoN9CS4CQWCwB96blXSoQvEnTFpdkYkRklNAMZgwHuUA0pa14tFf7+JmNhAaAv+Xw6Hn36MBqaxd2DbVEV3P7tMX7bI4BMjC8Bv/lgQy0+2lQnOgYZDAsAfUVPnxd/XHkQvX3BnY1/stEjY3Dt10cKe34yBtUIq1SFgANH2rD2NfFzfMh4WADoNPWNffjLU4fgFXgN9ool2ZhakCjs+YlCQUVVN/7y9GGuXUFnxAJAZ3S4uAOP/O0INEEHDkUB7r9tPHKzOR9AVhwAGJ6mln78zxMH4eSMfzoLFgA6q937W/DcKyXCnt/hsOBf75+MtJRwYRlIIDaAIWvvdOP3j+znMr90TiwAdE6fbK7H6/88Juz5o6Ns+Jf7JiE5MTi7+ZFx8PQ/NH39Xvz34/vR3MrVLencWADovF57pxKfbBY3gzglKRy/eGgasjMjhWWg4OMAwOC53Rr+Z+VBVNdygyo6PxYAGpBnXy7Bp9sbhD1/XKwd//6DqRgveOMiIqNyezT8z8oDKC7jBj80MCwANCC6Djz5QhG27GgUliEi3IqHH5yMb12eC5XrBIQ8/o4HzuvT8cjTh3G4uEN0FDIRFgAaMF0HVq0uwtadTcIyqKqCb16eg5//cCrnBRDh+Mn/L08dwt4vtrgmGigWABoUTdOx6vmj2LG3WWiO0SNj8OufzMCyRVmwWPhJMRRxDsD5nTj57znAkz8NHgsADZpP0/HYM0ewfbfYEhAZYcVN14zC7//tAkyfnCQ0C/mfwvsAzsnt1vC/fz3Ikz8NGfdepSHx+XQ88ewRuFw+LLgoTWiWtJRw/PCuiSgq68TbH1Zj36FW7nUeCnj+P6u+/uNLdhdxwh8NAwsADZmm6Xh6bRH6nV4sW5QlOg7GjorF2FGxqGvsw8atDdiyoxGdXVwIxaw4B/DMuns8+O/HD6Ciqlt0FDI5y+RZtxWKDkHmduBIOxRFMcwtetFRNkwaH4+li7IwbnQswsOt6OrxoK8/uBscxcfa4fXpwpZTNrslCzIRE2UTHcNQ2jtc+N1f9vE+f/ILjgCQX7z2TiV6ez246ZrRhpm8ZVEVTBwbj4lj43HL8tFoaXXiSGknyo91oaq2F9W1Pej3wzrpMdE2pCVHIDUlHJlpEcjJisKIzCjERNvwL7/6HA1N4rZXNjODvIwMo7ahD394/ABa2rjCH/kHCwD5zfsbatHa4cK9t46H3Wa8+aVJiQ7MS3Rg3oWpX36tq9uDljYn2tpd6OrxoLfv/0YK+vq90HXAZlVht6uICLfCZlMRE21HfKwdMdF2JMSFIdxhOetzckvbYeBf3ZcOF3fgz08eCvooFoU2FgDyq517W/C7jn146O4CxEQbf/g2JtqGmGgb8nKiA/MEPIkNGcvTcZ/vacbK54/C4xG3PTeFJuN9TCPTK6vswn/8z27UN/aJjiKcwpPY0PGvDh9sqMWjfzvMkz8FBAsABURTixO//tNeHC2V+zYlzmQfOpn/6jweDSufP4rVr5byllYKGBYACpjuHg9+/5d9ePvDatFRxJH5LDZMso6etHe48Nv/3Ystn4vbd4PkwDkAFFA+TcfLb5ajqaUft1w3BlbJlu3ldeyhk/Gvrri8E3956jDXr6CgYAGgoFi/pR61DX343h0TEBttFx0naGQ8idHQfLSpDmv+Xgqfj2P+FBy8BEBBU1zWiZ//526pli+VdRjbH2T5q3O6fHjiuSN47pUSnvwpqFgAKKjaO1z43Z/34fV3j0kxuUmWk1ggyFCeahv6UPiHPdi6Q9wW2yQvXgKgoNM0Ha+9W4mjpR2477bxiI0J3UsCoX8KC5xQP/9v+bwRf3upGG43b/EjMTgCQMIcLu7Az/9rd0jfKqjwPkA6RV+/F4/97TBWPn+UJ38SigWAhDp+SWAv1rxaCq839A6Gof4pNpBC8RLAoaJ2/Ox3O7F9d7PoKES8BEDi6frxfQQOFnXg3lvHIScrSnQkv1F4EWDIQulvzu3R8Pq7lXjno2op5r6QObAAkGHU1vfil/+9G1cvzcHVy0ZADYHh8xD8EBs0SoiMT5ZVduGvq4u4NDYZDgsAGYrPd3yC4MGidnz3xnxkpEaIjjQsnAMgL6fLh7+/XYkPNtZC0/ixn4yHBYAMqbisEz/73U5ctjgL11yRC6vVnB8HefofOjOvorjvUBuefbkELW1O0VGIzooFgAzL59Px9ofV2Lm3BbffkI8J+XGiIw2aic9hNASd3W689EY5Nn/GdfzJ+FgAyPAamvvx+0f2YfHFGbj26yMRFWGel20ozmQPFjP91fk0Hes31+PVtyvQ2+cVHYdoQMxzJCWp6Trw8ad12L6rCd+6PBdL5meYYpKgas4rF4ZglvJ0uLgDa/5eiuraXtFRiAaFBYBMpbfPi9WvluLjzXVYcc1oTBofLzrSeZjjJGZERj//t7a78OrbFRzuJ9NiASBTqmvow389th+zpyfj+qvzkJToEB3pjEwwSEGD1NfvxdsfVuO99TXweEJv8SqSBwsAmdr23c3Ysa8F82en4Zorcg23rwBvAxw6o10CcLs1bNhajzfeO4buHo/oOETDxgJApufz6Vi/pR5bdzTh0gUZ+PrXRiAi3BgvbWOdwszFKH93Pp+OTdsb8Pq7lWjvdIuOQ+Q3xjhKEvmBy+3D2x9WY9P2Bly1NAeL5qbDbhM7C89gH2LNRfDfnc+nY+uORrz5fhUam/vFhiEKABYACjld3R6sebUUb753DJfOz8TSRZnCRgSMNoxtJqIWAvL6dHy2qwmv//MYT/wU0lgAKGR193jw2rvHl2L92sJMLF0Y/CLABWCHzuvTYA/ihqVOlw+fbK7Dux/XoLOLQ/0U+lgAKOT19Hrw2juV+OfH1Vg0NwOXLshAUkJw7hro4WSxIevu8QSlsLW0OfHRpjps2FrPRXxIKiwAJI1+pw/vflyN99fXYMaUJCxblIUxeTEBez5N01HXwMVhhqqiqhupyeEBe/yisk58sKEWO/e1cLMekhILAEnHp+n4fE8zPt/TjLycaCxdlIVZU5P8vuFQaUUXeviJcsh27mvB7Bkpfn1Mp8uHz3Y346NNtais7vHrYxOZDQsASa38WDeeePYI1kTZMHdWKhbOSUdmmn+2IH7rw2q/PI6sduxtQU1dL7IyIof9WKUVXdi4rQHbdzfB6fT5IR2R+Skr7t/AsS+ik4zJi8HCOem4cHoywuyWIT3Gls8bsfL5o35OJp+sjEj8/IdThzQXoKvbg607G7FhawNq63kphuhULABEZ+FwWDBjUhIumpmCgnHxsFgGdlva1h1NeHLNUXh9fGv5Q15ONO69dTzSUs4/H6Cv34ud+1qwfVcTDhV18No+0TmwABANQHSUDbOmJeOimSnemgrcAAAI2klEQVTIz4s9bYEfTdNxuLgDH26sxe4DrWJChjC7TcXcWamYPSMFeSOi4XAcH5nxejV0dLpRWtmFbbuasf9wG7xers9PNBAsAESDFBVhRXxcGOJi7bBaVbR3uNDS6uSEvyCy21WE2S1ck59oGDgJkGiQevq86OnzorqO15VFcbs1uN38pE80HGIXSiciIiIhWACIiIgkxAJAREQkIRYAIiIiCbEAEBERSYgFgIiISEIsAERERBJiASAiIpIQCwAREZGEWACIiIgkxAJAREQkIRYAIiIiCbEAEBERSYgFgIiISEIsAERERBJiASAiIpIQCwAREZGEWACIiIgkxAJAREQkIRYAIiIiCbEAEBERSYgFgIiISEIsAERERBJiASAiIpIQCwAREZGEWACIiIgkxAJAREQkIRYAIiIiCbEAEBERSYgFgIiISEIsAERERBJSAWiiQxAREVFQaSoAj+gUREREFFQuFYBLdAoiIiIKKhYAIiIiCblVAJ2iUxAREVFQtauA0io6BREREQVVqwroLABERERyaVUBNIpOQUREREGk600qFL1KdA4iIiIKHkVBparraoXoIERERBQ8moJKVQdYAIiIiKSiV6i6RzssOgYREREFj0XXjqovrlrUAqBBdBgiIiIKitrnH1vSemI3wANCoxAREVGwHAC+2A5Y17FHbBYiIiIKBkVR9gInCoCibRUbh4iIiIJB07UtwIkC4FG2ANCFJiIiIqJA0932sK3AFwXgi4mAJUIjERERUaAdWfenOW3AFwUAAHToH4rLQ0RERIGmQPngxD+rJ339PQFZiIiIKFgU35fn+i8LgBruXg/AKSQQERERBVq/0+bYdOJfviwAq/+wtBcALwMQERGFpvfW/WlO/4l/OfkSABRgXfDzEBERUcDpXz3Hf6UA2Pqtb4CXAYiIiEKNU7c43jn5C18pAH/728XdAN4OaiQiIiIKtH+88MjsrpO/oJ72Lbr+dNDiEBERUTA8deoXTisAo1MWfgDgWFDiEBERUUDpQOXo5AUfn/r10wpAYaGi6YryZHBiERERUSApwJOFhYp26tdPvwQAwG2zPQGgN+CpiIiIKJD6VHj/eqY/OGMB+GKd4OcDGomIiIgCSgeeev6xJa1n+rMzFoDjP6X/EYAvUKGIiIgooDy6Zvnz2f7wrAVgzeOLSgF9TWAyERERUYA9t/aJeeVn+8OzjwAAsPpQCMDt70REREQUUB5FUX53rm84ZwF4duWiSkB/xq+RiIiIKLAUPLn60QUV5/qWcxYAAFB89l8A6PRbKCIiIgqkDp9b/+X5vum8BWD1yrlNAH7rl0hEREQUUIqOX724alHL+b7vvAUAAFzJyX8GUDTsVERERBRIR5wpyY8N5BsHVADWFU50a1DuAqAPKxYREREFiqbq+l3rCicOaPL+gAoAAKx9bMEmQF819FxEREQUMApWPv/4os0D/fYBFwAAcHm8PwE3CiIiIjIUHajUFcdPB/MzgyoA61Zd2qnq+gpwhUAiIiKj0FRNu+2FR2Z3DeaHBlUAAOCL4YX/HOzPERERUQAo+q9XP7F442B/bNAFAABqkvVfQlEG/WRERETkPwqwviYJvxnizw7NDd//KNXite4CkDnUxyAiIqKhUYBqq6rOeOaR+c1D+fkhjQAAwIt/XtIIXbkOgGuoj0FERERD4gS05UM9+QPDKAAAsObxBVt1RbkVXB+AiIgoWHToyh2rH1v82XAeZFgFAABeeHTBy9Bx3jWHiYiIaPh0Xf/ZmscXvDDcxxnyHIBT3XTfxicURb/HX49HREREp1CUR9c8uuBBfzzUsEcATnjh8fn3Qdef9tfjERER0f/RgdWjk+Z/31+P57cCACi6q7n5bgDr/PeYREREBOAVd1PT7YWFiuavB/RjAQDWrbvO52pqugHAM/58XCIiInnpL9Qk6zetW3edX1fh9dscgJMVFupqafPGRwHcG4jHJyIikoKiPLrm0fnfAxS/320XkAJwwooHNn4fuv5H+HmkgYiIKMTpUPRfrXl0UWGgniCgBQAAbn5gw3Jdx3MAwgP9XERERCHApSvKd154dMHaQD5JwAsAANxy/4aLtOOTA7lsMBER0VkoQDWgLR/uIj8DEZSh+ecfW7jNpqrTAOXjYDwfERGRCW2y6PqsYJz8gSBem3/mkfnNNcnaMgC/A+DXmYxEREQm5oOi/4erqWnxs48vagjWkwblEsCpbrp3/WxFVV4AkCfi+YmIiAziGFTcvOaRhZ8G+4mFzM5/4YlF210ez3QAq8CNhIiISD4agCd01TFZxMkfEDQCcLIb7984X4X+JIB80VmIiIiC4Iiq63c9//iizSJDCL8/f+1jCzZFeKIKoCg/ANApOg8REVGAdADKw/Fq3zTRJ3/AACMAJ7v5ni0pusX9K0D5DgCb6DxERER+4IaCp2yKWvjMI/ObRYc5wVAF4IQb7/84R4XlZwC+A8AqOg8REdEQeHTgJavq+4/nHrmkTHSYUxmyAJxw64Mfj/Lploeg4zYAEaLzEBERDUAvFOUZzaf+ae0T88pFhzkbQxeAE265/6NEn2K7R9H1OwHkiM5DRER0Kh2oVIAnXXb7ynV/mtMmOs/5mKIAnFBYqKtlLesv1f9/e/fr0lAUhnH8+95NN4NprpgcGBRMNoegQcGiTcFimGAx+R/sPzDZZMGocUX8gQgym8VgnMkg3CR4depewy0LBtHh5V6fD5z+nHQeOC/neLAJLAPFpDOJiMi/FgFNYH+8PHder1s36UDflaoC0KtWuxruFD9WMF8DFtFnQyIi8jcix04wDgvPuWajMfuUdKCfSG0B6LW60xoafOvM4yxZXAYmyMjeREQkcQ7c4X4KHL8WCpdHu9Uo6VC/lclDcn3rYiSftxkCqzo+jTMFjCadS0REUuHBsVvwm8C5NntvHewthEmH6rdMFoCvbGyflfDcpJtV3BnDqBiUu1AyKBGvgHiuQNcJIiLZEgEvxE/whg5hACHw6M69B94Gb3cGindpGODrh09YL6jVFwFNRgAAAABJRU5ErkJggg==;" vertex="1" parent="1">
          <mxGeometry x="660" y="540" width="55.00000000000001" height="55" as="geometry" />
        </mxCell>
        <mxCell id="WAwGREqBWpnCd0pNxmOx-110" value="" style="verticalLabelPosition=bottom;shadow=0;dashed=0;align=center;html=1;verticalAlign=top;strokeWidth=1;shape=mxgraph.mockup.graphics.simpleIcon;strokeColor=#999999;fillColor=#ffffff;" vertex="1" parent="1">
          <mxGeometry x="742.5" y="540" width="55.00000000000001" height="55.00000000000001" as="geometry" />
        </mxCell>
        <mxCell id="WAwGREqBWpnCd0pNxmOx-111" value="" style="verticalLabelPosition=bottom;shadow=0;dashed=0;align=center;html=1;verticalAlign=top;strokeWidth=1;shape=mxgraph.mockup.graphics.simpleIcon;strokeColor=#999999;fillColor=#ffffff;" vertex="1" parent="1">
          <mxGeometry x="825" y="540" width="55.00000000000001" height="55.00000000000001" as="geometry" />
        </mxCell>
        <mxCell id="WAwGREqBWpnCd0pNxmOx-112" value="" style="verticalLabelPosition=bottom;shadow=0;dashed=0;align=center;html=1;verticalAlign=top;strokeWidth=1;shape=mxgraph.mockup.graphics.simpleIcon;strokeColor=#999999;fillColor=#ffffff;" vertex="1" parent="1">
          <mxGeometry x="660" y="622.5" width="55.00000000000001" height="55.00000000000001" as="geometry" />
        </mxCell>
        <mxCell id="WAwGREqBWpnCd0pNxmOx-113" value="" style="verticalLabelPosition=bottom;shadow=0;dashed=0;align=center;html=1;verticalAlign=top;strokeWidth=1;shape=mxgraph.mockup.graphics.simpleIcon;strokeColor=#999999;fillColor=#ffffff;" vertex="1" parent="1">
          <mxGeometry x="742.5" y="622.5" width="55.00000000000001" height="55.00000000000001" as="geometry" />
        </mxCell>
        <mxCell id="WAwGREqBWpnCd0pNxmOx-114" value="" style="verticalLabelPosition=bottom;shadow=0;dashed=0;align=center;html=1;verticalAlign=top;strokeWidth=1;shape=mxgraph.mockup.graphics.simpleIcon;strokeColor=#999999;fillColor=#ffffff;" vertex="1" parent="1">
          <mxGeometry x="825" y="622.5" width="55.00000000000001" height="55.00000000000001" as="geometry" />
        </mxCell>
        <mxCell id="WAwGREqBWpnCd0pNxmOx-115" value="" style="verticalLabelPosition=bottom;shadow=0;dashed=0;align=center;html=1;verticalAlign=top;strokeWidth=1;shape=mxgraph.mockup.graphics.simpleIcon;strokeColor=#999999;fillColor=#ffffff;" vertex="1" parent="1">
          <mxGeometry x="660" y="705" width="55.00000000000001" height="55.00000000000001" as="geometry" />
        </mxCell>
        <mxCell id="WAwGREqBWpnCd0pNxmOx-116" value="" style="verticalLabelPosition=bottom;shadow=0;dashed=0;align=center;html=1;verticalAlign=top;strokeWidth=1;shape=mxgraph.mockup.graphics.simpleIcon;strokeColor=#999999;fillColor=#ffffff;" vertex="1" parent="1">
          <mxGeometry x="742.5" y="705" width="55.00000000000001" height="55.00000000000001" as="geometry" />
        </mxCell>
        <mxCell id="WAwGREqBWpnCd0pNxmOx-117" value="" style="verticalLabelPosition=bottom;shadow=0;dashed=0;align=center;html=1;verticalAlign=top;strokeWidth=1;shape=mxgraph.mockup.graphics.simpleIcon;strokeColor=#999999;fillColor=#ffffff;" vertex="1" parent="1">
          <mxGeometry x="825" y="705" width="55.00000000000001" height="55.00000000000001" as="geometry" />
        </mxCell>
      </root>
    </mxGraphModel>
  </diagram>
</mxfile>
